<svg xmlns="http://www.w3.org/2000/svg" xmlns:xlink="http://www.w3.org/1999/xlink" fill="none" version="1.1" width="60" height="60" viewBox="0 0 60 60"><defs><clipPath id="master_svg0_2_354"><rect x="0" y="0" width="60" height="60" rx="0"/></clipPath><clipPath id="master_svg1_2_374"><rect x="4" y="4" width="52" height="52" rx="0"/></clipPath></defs><g clip-path="url(#master_svg0_2_354)"><g clip-path="url(#master_svg1_2_374)"><rect x="19.75" y="12.75" width="21.5" height="35.5" rx="2.1499996185302734" fill-opacity="0" stroke-opacity="1" stroke="#313131" fill="none" stroke-width="3.5"/><path d="M23,43.500001999999995C23,44.32843,23.67157292,45.000001999999995,24.5000002,45.000001999999995L36.5,45.000001999999995C37.328427,45.000001999999995,38,44.32843,38,43.500001999999995L38,22L23,22L23,43.500001999999995Z" fill="#00A060" fill-opacity="1"/><path d="M26,11L34.999999,11L34.999999,10.2133332C34.999999,9.54322779,34.4567719,9,33.7866659,9L27.2133332,9C26.54322779,9,26,9.54322779,26,10.2133332L26,11Z" fill="#313131" fill-opacity="1"/></g></g></svg>