<svg xmlns="http://www.w3.org/2000/svg" xmlns:xlink="http://www.w3.org/1999/xlink" fill="none" version="1.1" width="59.7333984375" height="59.73333740234375" viewBox="0 0 59.7333984375 59.73333740234375"><defs><clipPath id="master_svg0_2_423"><rect x="0" y="0" width="59.73333740234375" height="59.73333740234375" rx="0"/></clipPath></defs><g clip-path="url(#master_svg0_2_423)"><path d="M13.470454014379882,37.25567011047363L26.631347114379885,30.317558110473634L13.470453814379884,23.37944321047363C12.814011514379883,23.033382410473635,12.403139114379883,22.352310210473632,12.403139114379883,21.610235210473633L12.403139114379883,19.692653210473633C12.403139114379883,19.31629081047363,12.803263244379883,19.074856310473635,13.136227604379883,19.250307510473633L28.331232114379883,27.257126110473635L28.331232114379883,16.615119410473632Q28.331232114379883,14.913712310473633,29.835674114379884,14.119079950473633Q31.34011611437988,13.324447750473633,32.745397114379884,14.283598060473633L42.73431211437988,21.101357410473632Q44.05191811437989,22.000666610473633,43.96123511437988,23.593345610473634Q43.87055211437988,25.186026110473634,42.459379114379885,25.929964110473634L34.13655811437988,30.317558110473634L42.48883611437988,34.720684110473634Q43.88624411437988,35.45736511047363,43.989250114379885,37.03370311047363Q44.09225611437988,38.61004111047363,42.80260111437988,39.52230811047363L32.78422711437988,46.60903311047363Q31.382019114379883,47.600916110473634,29.856624114379883,46.811487110473635Q28.331232114379883,46.02205811047363,28.331232114379883,44.30449511047363L28.331232114379883,33.37799111047363L13.140944834379884,41.59107611047364C12.807805414379883,41.771198110473634,12.403139120952767,41.52996211047363,12.403139126363866,41.15124711047363L12.40313915674541,39.024879110473634C12.403139167348172,38.282804110473634,12.814011574379883,37.601732110473634,13.470454014379882,37.25567011047363M31.831232114379883,17.897180510473632L31.831232114379883,27.576301110473633L39.83242811437988,23.358259210473634L31.831232114379883,17.897180510473632ZM39.88048011437988,37.30219311047363L31.831232114379883,33.05881711047363L31.831232114379883,42.99601211047363L39.88048011437988,37.30219311047363Z" fill-rule="evenodd" fill="#0E0F12" fill-opacity="0.9800000190734863"/></g></svg>