<svg xmlns="http://www.w3.org/2000/svg" xmlns:xlink="http://www.w3.org/1999/xlink" fill="none" version="1.1" width="34" height="34" viewBox="0 0 34 34"><defs><clipPath id="master_svg0_2_9522"><rect x="0" y="0" width="34" height="34" rx="0"/></clipPath></defs><g clip-path="url(#master_svg0_2_9522)"><path d="M17.708147906249998,4.9586181640625C18.09940290625,4.9586181640625,18.416536906250002,5.2757448840625,18.416536906250002,5.6669487940625L18.416536906250002,28.3336181640625C18.416536906250002,28.7247891640625,18.09940290625,29.0419231640625,17.708147906249998,29.0419231640625L16.115841906249997,29.0419231640625C15.77269790625,29.0419231640625,15.44094290625,28.9172271640625,15.18262890625,28.6912121640625L10.56670330625,24.6521811640625L5.86780120625,23.7986111640625C4.52074640625,23.5536401640625,3.54164860249,22.3800491640625,3.54150390625,21.0109521640625L3.54150390625,12.9895877640625C3.54164860249,11.620492464062501,4.52073794625,10.4468979640625,5.86780120625,10.201927664062499L10.56670330625,9.3476776640625L15.18262890625,5.3093196740625C15.44094290625,5.0833556240625,15.77269790625,4.9586181640625,16.115841906249997,4.9586181640625L17.708147906249998,4.9586181640625Z" fill="#313131" fill-opacity="1" style="mix-blend-mode:passthrough"/><path d="M25.6333708375,7.8251427065625C25.9218602375,7.5609541385625,26.3701493375,7.5808022505625,26.6342456375,7.8694197665625L27.1122846375,8.3916767265625C29.1885790375,10.6587968265625,30.4581413375,13.6825866265625,30.4581413375,17.0003071265625C30.4581413375,20.317857226562502,29.1882386375,23.3412212265625,27.1122846375,25.6081712265625L26.6342456375,26.1304112265625C26.3701493375,26.4190732265625,25.9218602375,26.4388772265625,25.6333708375,26.1746962265625L24.5881257775,25.2180232265625C24.2997206715,24.9537582265625,24.2802559885,24.5055522265625,24.544520747500002,24.2171462265625L25.0232406875,23.6948222265625C26.6400253375,21.9293722265625,27.6248350375,19.5814162265625,27.6248350375,17.0003071265625C27.6248350375,14.4187717265625,26.6401095375,12.0704770265625,25.0232406875,10.3050263265625L24.544520747500002,9.7827863265625C24.2802559885,9.4942962265625,24.2997206715,9.046091226562499,24.5881257775,8.7818265265625L25.6333708375,7.8251427065625Z" fill="#313131" fill-opacity="1" style="mix-blend-mode:passthrough"/><path d="M21.92337396875,11.4904595146875C22.19996516875,11.2139543596875,22.64842466875,11.2139543596875,22.92501406875,11.4904595146875L23.42583486875,11.9912794246875C24.706274068749998,13.2717194546875,25.50034426875,15.0447335546875,25.50034426875,17.0001587546875C25.50034426875,18.9554991546875,24.706274068749998,20.7285127546875,23.42583486875,22.0089540546875L22.92501406875,22.5097730546875C22.64842466875,22.7862780546875,22.19996516875,22.7862780546875,21.92337396875,22.5097730546875L20.92173394875,21.508133054687498C20.64522876575,21.231543554687498,20.64522876575,20.7830839546875,20.92173394875,20.5064926546875L21.42255478875,20.0056734546875C22.19307966875,19.2352333546875,22.66703966875,18.1743483546875,22.66703966875,17.0001587546875C22.66703966875,15.8258838546875,22.19307966875,14.7649991546875,21.42255478875,13.9945585546875L20.92173394875,13.4937393546875C20.64522876575,13.2171491546875,20.64522876575,12.7686897546875,20.92173394875,12.4920993546875L21.92337396875,11.4904595146875Z" fill="#313131" fill-opacity="1" style="mix-blend-mode:passthrough"/></g></svg>