<svg xmlns="http://www.w3.org/2000/svg" xmlns:xlink="http://www.w3.org/1999/xlink" fill="none" version="1.1" width="34" height="34" viewBox="0 0 34 34"><defs><clipPath id="master_svg0_7_01495"><rect x="0" y="0" width="34" height="34" rx="0"/></clipPath></defs><g clip-path="url(#master_svg0_7_01495)"><path d="M12.0414700375,13.458251953125C12.4326393375,13.458251953125,12.7497749375,13.775387223125,12.7497749375,14.166642603125L12.7497749375,26.916642953125C12.7497749375,27.307813953125,12.4326393375,27.624947953125,12.0414700375,27.624947953125L11.9134597375,27.624947953125C11.5760092375,27.624778953125002,11.2852249375,27.386607953125,11.2190091375,27.055616953125L8.6692647925,14.305617513125C8.5816299465,13.867357283125,8.9167844975,13.458337068558,9.3637150575,13.458251953125L12.0414700375,13.458251953125Z" fill="#313131" fill-opacity="1" style="mix-blend-mode:passthrough"/><path d="M18.34110096875,13.458251953125C18.76015086875,13.458251953125,19.08765556875,13.820182263125,19.04592176875,14.237192813125L17.77109026875,26.987193953125C17.73488116875,27.349205953125,17.430070668749998,27.624947953125,17.06618526875,27.624947953125L16.93205626875,27.624947953125C16.56817066875,27.624947953125,16.26336016875,27.349205953125,16.22715126875,26.987193953125L14.95231990795,14.237192813125C14.91058578675,13.820182263125,15.238090518749999,13.458251953125,15.65714054875,13.458251953125L18.34110096875,13.458251953125Z" fill="#313131" fill-opacity="1" style="mix-blend-mode:passthrough"/><path d="M24.6360602,13.458251953125C25.0829892,13.458337068558,25.4181442,13.867357283125,25.330510099999998,14.305617513125L22.7807646,27.055616953125C22.7145495,27.386607953125,22.4237645,27.624778953125002,22.08631504,27.624947953125L21.9583047,27.624947953125C21.56713524,27.624947953125,21.25,27.307813953125,21.25,26.916642953125L21.25,14.166642603125C21.25,13.775387223125,21.56713524,13.458251953125,21.9583047,13.458251953125L24.6360602,13.458251953125Z" fill="#313131" fill-opacity="1" style="mix-blend-mode:passthrough"/><path d="M17,6.375C20.254055,6.375,23.762939,6.89528483,26.496796,7.7543118C27.855947,8.1814204,29.103489,8.7163255,30.041889,9.3674257C30.920109,9.9767907,31.874916,10.9365258,31.875,12.2775702C31.875,13.0270157,31.722,14.1814003,31.52429,15.3952017C31.321056,16.642576,31.052031,18.060462,30.78479,19.389266C30.51721,20.719771,30.249802,21.971396,30.049541,22.889397C29.949411,23.348398,29.86594,23.724606,29.807377,23.986492C29.778135,24.117479,29.754673,24.220327,29.738947,24.290195C29.731045,24.324877,29.725096,24.351566,29.720932,24.369673C29.718893,24.378767,29.71719,24.385736,29.716084,24.390499C29.71566,24.392365,29.715572,24.394068,29.715406,24.395344L29.715406,24.396702L29.714725,24.398062L29.556965,25.089111C29.470011,25.470253,29.090822,25.709105,28.7096,25.622402L27.327585,25.306967C26.946447,25.220011,26.707594,24.84083,26.794212,24.4596L26.951971,23.769318L26.951971,23.767874L26.95265,23.766514C26.952738,23.765491,26.952991,23.763962,26.953331,23.762346C26.954264,23.758099,26.956221,23.751551,26.958174,23.742968C26.962086,23.725798,26.967865,23.699959,26.975431,23.66621C26.990816,23.598297,27.013084,23.49757,27.041901,23.368797C27.099529,23.110992,27.182236,22.739288,27.281176,22.285557C27.479397,21.377247,27.743149,20.141345,28.006821,18.830306999999998C28.270828,17.517482,28.533052,16.1383553,28.7283,14.9400263C28.909519,13.8278008,29.018745,12.9528108,29.038212,12.4332056C29.041525,12.3440409,29.026138,12.2539406,28.973185,12.1821151C28.897959,12.0800304,28.743004,11.9153008,28.42672,11.6958303C27.818035,11.2734656,26.871645,10.8416657,25.647305,10.4568706C23.21418,9.6923802,19.994211,9.2083049,17,9.2083049C14.00579,9.2083049,10.785821,9.6923802,8.352661600000001,10.4568706C7.1283383,10.8416657,6.181982,11.2734656,5.5732801,11.6958303C5.2567315,11.915471100000001,5.1014447,12.0801153,5.0261268999999995,12.1821151C4.9731545,12.2538552,4.9577441,12.3441262,4.9611013,12.4332056C4.9806857,12.9528108,5.0905054,13.8278008,5.2716916000000005,14.9400263C5.4669113,16.1383553,5.7291446,17.517482,5.9931629,18.830306999999998C6.2568159,20.141345,6.5206389,21.377247,6.7187905,22.285557C6.8177819,22.739288,6.900496,23.110992,6.9581342,23.368797C6.9869232,23.49757,7.0091934,23.598297,7.0245361,23.66621C7.0321608,23.699959,7.0379148,23.725798,7.0418329,23.742968C7.0437717,23.751551,7.045701,23.758099,7.0466704,23.762346C7.0470357,23.763962,7.0472388,23.765491,7.0473676,23.766514L7.0480556,23.767874L7.0480556,23.769318L7.2057724,24.4596C7.2924309,24.84083,7.0535545,25.220011,6.6724401,25.306967L5.290366199999999,25.622402C4.9091663,25.709105,4.5300241,25.470253,4.4429922,25.089111L4.2852752,24.398062L4.2852752,24.396702L4.2845864,24.395344C4.2844419,24.394068,4.2843316,24.392365,4.2838978999999995,24.390499C4.2828271,24.385736,4.2811017,24.378767,4.2790532,24.369673C4.2749388,24.351566,4.2689128,24.324877,4.261067199999999,24.290195C4.2452912000000005,24.220327,4.2218735,24.117479,4.1925821,23.986492C4.1340346,23.724606,4.050607,23.348398,3.9504772,22.889397C3.7502085999999997,21.971396,3.4827561,20.719771,3.2151676,19.389266C2.94795293,18.060462,2.67891949,16.642576,2.47571003,15.3952017C2.27798302,14.1814003,2.125,13.0270157,2.125,12.2775702C2.12511044741,10.9365258,3.07988149,9.9767907,3.958093,9.3674257C4.8965101,8.7163255,6.1440125,8.1814204,7.5032134,7.7543118C10.2370605,6.89528483,13.745944,6.375,17,6.375Z" fill="#313131" fill-opacity="1" style="mix-blend-mode:passthrough"/></g></svg>