<svg xmlns="http://www.w3.org/2000/svg" xmlns:xlink="http://www.w3.org/1999/xlink" fill="none" version="1.1" width="34" height="34" viewBox="0 0 34 34"><defs><clipPath id="master_svg0_7_01492"><rect x="0" y="0" width="34" height="34" rx="0"/></clipPath></defs><g clip-path="url(#master_svg0_7_01492)"><path d="M6.5867178875,19.78509893215942C5.9951350875,20.343209932159425,5.6669921875,20.958437932159423,5.6669921875,21.604609932159423C5.6675788874999995,23.645374932159424,8.9364752875,25.374443932159423,13.4630660875,25.977518932159423L13.4630660875,23.611799932159425L18.8386361875,28.987365932159424C18.2375171875,29.021963932159423,17.6238151875,29.042106932159424,17.0000871875,29.042106932159424C9.5676006875,29.042106932159424,3.54234926705,26.504606932159422,3.5419921875,23.375158932159422C3.5419921875,22.012780932159423,4.6839332875,20.762515932159424,6.5867178875,19.78509893215942ZM27.4142031875,19.785948932159425C29.3166711875,20.763279932159424,30.4589001875,22.012948932159425,30.4589001875,23.375158932159422C30.4586471875,25.692768932159424,27.1532531875,27.683555932159425,22.4196031875,28.561515932159423L19.9119321875,26.053848932159426C24.7598251875,25.531862932159424,28.3333091875,23.738193932159422,28.3339001875,21.604609932159423C28.3339001875,20.958609932159426,28.0054641875,20.343888932159423,27.4142031875,19.785948932159425ZM11.5746202875,8.939268332159424L9.0387301875,11.007063432159423L9.0669507875,11.078377732159424C9.614776087500001,11.078377732159424,10.1199311875,11.224748132159423,10.5827555875,11.517488432159425C11.0454949875,11.800878032159424,11.4089555875,12.202503232159424,11.6734761875,12.721938632159425C11.9472608875,13.231939332159424,12.0843658875,13.803394332159424,12.0843658875,14.436048532159424C12.0842818875,15.163138832159424,11.9099454875,15.810243132159425,11.5605105875,16.376768632159425C11.220510987499999,16.943464932159422,10.7433204875,17.387162932159423,10.1294507875,17.708293932159425C9.5250153875,18.02933793215942,8.8354100875,18.189733932159424,8.0609321875,18.189733932159424C7.0694753875,18.189646932159423,6.2433435875,17.958364932159423,5.5823242875000005,17.495792932159425C4.9213045875,17.033054932159423,4.4393882175,16.442813432159426,4.1371537475,15.725158232159425L6.190770887499999,14.336514432159424C6.389076187500001,14.827559032159424,6.6351508875,15.195778332159424,6.9278826875,15.441342832159425C7.2206313875,15.686823332159424,7.5888762875,15.809819732159424,8.0327128875,15.809902632159424C8.316043387499999,15.809902632159424,8.5667256875,15.757712832159424,8.7839002875,15.653843432159423C9.0104250875,15.540453432159424,9.1803407875,15.380059732159424,9.293560487499999,15.172402832159424C9.4162997875,14.964664032159424,9.477840387499999,14.719269232159423,9.477840387499999,14.436048532159424C9.477840387499999,14.152742832159424,9.416385187500001,13.906754532159423,9.293560487499999,13.699014632159423C9.1803407875,13.481923132159423,9.0151004875,13.316767732159423,8.7980103875,13.203377732159424C8.5902695875,13.080638432159425,8.3442720875,13.014508732159424,8.0609321875,13.004989132159423C7.8721994875,12.995638332159423,7.7022838875,13.019013432159424,7.5512647875,13.075623032159424C7.4096030875,13.122798432159424,7.229768787499999,13.212302732159424,7.0125505875,13.344563532159423L5.5682136875,11.545793032159423L8.0393509875,9.264733532159424L4.5621537875,9.264733532159424L4.5621537875,6.800192732159424L11.5746202875,6.800192732159424L11.5746202875,8.939268332159424ZM16.771776187500002,10.539733632159423L16.8149561875,10.569568632159424C17.0399501875,10.521968832159423,17.264774187500002,10.497403632159424,17.4897711875,10.497403632159424C18.1036391875,10.497403632159424,18.6758621875,10.648364032159424,19.2047321875,10.950623032159424C19.7429521875,11.252798532159424,20.1681211875,11.687232932159425,20.4797321875,12.253843832159424C20.8007751875,12.810934032159423,20.9610841875,13.458038832159424,20.9611721875,14.194562932159425C20.9611721875,14.987783932159424,20.7766381875,15.686910132159424,20.4083331875,16.291344132159423C20.0494591875,16.895777932159426,19.5443081875,17.363618932159426,18.8926121875,17.694183932159426C18.250437187499998,18.024663932159424,17.5185871875,18.189646932159423,16.697061187499997,18.189733932159424C15.8944061875,18.189733932159424,15.1719071875,18.024579932159426,14.5297301875,17.694183932159426C13.8875541875,17.354184932159423,13.3815507875,16.89101793215942,13.0131606875,16.305452832159425C12.6544599875,15.710538432159424,12.4752807875,15.044734432159423,12.4752807875,14.308293332159423C12.4752807875,13.864339332159425,12.5172700875,13.472062632159425,12.6022710875,13.132063832159425C12.6872720875,12.782798732159424,12.8056754875,12.452488432159424,12.9567212875,12.140877732159424C13.1078509875,11.819918632159425,13.3391351875,11.375964132159424,13.6506601875,10.809438232159424C13.6600961875,10.790568832159423,13.6702961875,10.771102932159424,13.6797311875,10.752233532159423C13.6984301875,10.733448532159425,13.7127111875,10.714578132159424,13.7220601875,10.695793632159424L15.8893911875,6.800192732159424L19.0204511875,6.800192732159424L16.771776187500002,10.539733632159423ZM25.6478161875,6.601810932159424C27.0265201875,6.601904559131424,28.0790731875,7.0977432421594235,28.8062491875,8.089311332159424C29.5429441875,9.071528932159424,29.9119281875,10.511598332159423,29.9119281875,12.409904032159425C29.9119281875,14.298773332159424,29.5429441875,15.734083632159424,28.8062491875,16.716342932159424C28.0790731875,17.698432932159424,27.0265201875,18.189563932159423,25.6478161875,18.189733932159424C24.2689461875,18.189733932159424,23.2111221875,17.698519932159424,22.4744281875,16.716342932159424C21.7471671875,15.734083632159424,21.3828561875,14.298773332159424,21.3828561875,12.409904032159425C21.3828561875,10.511598332159423,21.7471671875,9.071528932159424,22.4744281875,8.089311332159424C23.2111221875,7.097650022159423,24.2689461875,6.601810932159424,25.6478161875,6.601810932159424ZM16.7958311875,12.863123432159423C16.484222187500002,12.863123432159423,16.2008311875,12.924579132159423,15.9458321875,13.047403832159425C15.7003521875,13.170143132159424,15.5064661875,13.339889032159423,15.3647711875,13.557063532159424C15.2325971875,13.774238632159424,15.1672301875,14.024905232159423,15.1672301875,14.308293332159423C15.1672301875,14.601034632159424,15.2325971875,14.861050132159423,15.3647711875,15.087659332159424C15.4970321875,15.314269532159424,15.6815671875,15.493365732159424,15.9176101875,15.625624132159423C16.1631761875,15.748363932159425,16.4372181875,15.809902632159424,16.739392187500002,15.809902632159424C17.0321321875,15.809819732159424,17.2922311875,15.748363932159425,17.5188401875,15.625624132159423C17.7547151875,15.493449732159425,17.9387411875,15.314098832159424,18.070832187500002,15.087659332159424C18.203090187500003,14.861050132159423,18.2692221875,14.601034632159424,18.2692221875,14.308293332159423C18.2692221875,14.024905232159423,18.203090187500003,13.774238632159424,18.070832187500002,13.557063532159424C17.948092187500002,13.340057832159424,17.7735021875,13.170058232159423,17.5470611875,13.047403832159425C17.3298851875,12.924579132159423,17.0792221875,12.863123432159423,16.7958311875,12.863123432159423ZM25.6478161875,9.066343032159423C25.1379011875,9.066343032159423,24.7454581875,9.349818032159424,24.4715881875,9.916343432159424C24.2071531875,10.473518132159423,24.0748061875,11.304904032159424,24.0748061875,12.409904032159425C24.0748061875,13.505382532159423,24.2071531875,14.332093232159423,24.4715881875,14.889268432159424C24.7454581875,15.446444032159423,25.1378191875,15.725158232159425,25.6478161875,15.725158232159425C26.1575641875,15.725074332159425,26.5447391875,15.446273332159423,26.8090881875,14.889268432159424C27.0829581875,14.332093232159423,27.2199781875,13.505382532159423,27.2199781875,12.409904032159425C27.2199781875,11.304904032159424,27.0829581875,10.473518132159423,26.8090881875,9.916343432159424C26.5447391875,9.349903132159424,26.1575641875,9.066428232159424,25.6478161875,9.066343032159423Z" fill="#313131" fill-opacity="1" style="mix-blend-mode:passthrough"/></g></svg>