<svg xmlns="http://www.w3.org/2000/svg" xmlns:xlink="http://www.w3.org/1999/xlink" fill="none" version="1.1" width="34" height="34" viewBox="0 0 34 34"><defs><clipPath id="master_svg0_7_01488"><rect x="0" y="0" width="34" height="34" rx="0"/></clipPath><clipPath id="master_svg1_7_01489"><rect x="5.046875" y="6.375" width="23.90625" height="21.25" rx="0"/></clipPath></defs><g clip-path="url(#master_svg0_7_01488)"><g clip-path="url(#master_svg1_7_01489)"><path d="M24.304687,18.328125C26.169973,18.328125,27.102915,18.327926144,27.772886,18.77557001C28.062819,18.96934313,28.311907,19.21843368,28.505678,19.5083631C28.953325,20.1783358,28.953125,21.1112769,28.953125,22.9765625C28.953125,24.8418479,28.953325,25.774789300000002,28.505678,26.4447613C28.311907,26.734691599999998,28.062819,26.9837809,27.772886,27.1775551C27.102915,27.6252003,26.169973,27.625,24.304687,27.625L9.6953125,27.625C7.830014,27.625,6.8971127,27.6252003,6.2271399,27.1775551C5.93717039,26.9837809,5.68810904,26.734691599999998,5.4943389,26.4447613C5.04668006247,25.774789300000002,5.046875000147604,24.8418479,5.046875000147604,22.9765625C5.046875000147583,21.1112769,5.04668006247,20.1783358,5.4943389,19.5083631C5.68810904,19.21843368,5.93717039,18.96934313,6.2271399,18.77557001C6.8971127,18.327926144,7.830014,18.328125,9.6953125,18.328125L24.304687,18.328125ZM24.203552,20.984375C23.830082,20.984375,23.458607,21.037168,23.099745,21.1406946L15.48773,23.3358207C15.203512,23.4178314,15.007946,23.6782112,15.0078125,23.9739847L15.0078125,24.3046875C15.0078125,24.6714487,15.305113,24.96875,15.671875,24.96875L25.632813,24.96875C25.999575,24.96875,26.296875,24.6714487,26.296875,24.3046875L26.296875,21.6484375C26.296875,21.2816763,25.999575,20.984375,25.632813,20.984375L24.203552,20.984375Z" fill-rule="evenodd" fill="#313131" fill-opacity="1" style="mix-blend-mode:passthrough"/><path d="M24.304687,6.3750000001485745C26.169973,6.3750000001485745,27.102915,6.37480506247,27.772886,6.8224639C28.062819,7.01623404,28.311907,7.26529539,28.505678,7.5552649C28.953325,8.225237700000001,28.953125,9.158139,28.953125,11.0234375C28.953125,12.8887358,28.953325,13.8216643,28.505678,14.4916363C28.311907,14.7815666,28.062819,15.0306559,27.772886,15.2244301C27.102915,15.6720743,26.169973,15.671875,24.304687,15.671875L9.6953125,15.671875C7.830014,15.671875,6.8971127,15.6720743,6.2271399,15.2244301C5.93717039,15.0306559,5.68810904,14.7815666,5.4943389,14.4916363C5.04668006247,13.8216643,5.046875000147367,12.8887358,5.046875000147367,11.0234375C5.046875000147346,9.158139,5.04668006247,8.225237700000001,5.4943389,7.5552649C5.68810904,7.26529539,5.93717039,7.01623404,6.2271399,6.8224639C6.8971127,6.3748051023,7.830014,6.375000000148554,9.6953125,6.3750000001485745L24.304687,6.3750000001485745ZM8.3671875,9.03125C8.0004392,9.03125,7.703125,9.3285642,7.703125,9.6953125L7.703125,12.3515625C7.703125,12.718310800000001,8.0004392,13.015625,8.3671875,13.015625L9.7964759,13.015625C10.1699114,13.0155983,10.5414143,12.9628181,10.9002209,12.859337799999999L18.512269,10.6641665C18.796487,10.582181,18.992055,10.3218024,18.992187,10.0260494L18.992187,9.6953125C18.992187,9.3285642,18.694887,9.03125,18.328125,9.03125L8.3671875,9.03125Z" fill-rule="evenodd" fill="#313131" fill-opacity="1" style="mix-blend-mode:passthrough"/></g></g></svg>