<svg xmlns="http://www.w3.org/2000/svg" xmlns:xlink="http://www.w3.org/1999/xlink" fill="none" version="1.1" width="68" height="68" viewBox="0 0 68 68"><defs><clipPath id="master_svg0_10_1372"><rect x="-1" y="-1" width="70" height="70" rx="35"/></clipPath></defs><g clip-path="url(#master_svg0_10_1372)"><g transform="matrix(0.4999999701976776,0.8660253882408142,-0.8660253882408142,0.4999999701976776,46.44505790202777,-26.90314362253298)"><path d="M45.52153557180664,26.771026611328125Q45.52153563180664,26.672554902328127,45.54074651180664,26.575975311328126Q45.55995738180664,26.479395721328125,45.59764087180664,26.388419751328126Q45.63532436180664,26.297443751328125,45.69003230180664,26.215567531328126Q45.74474025180664,26.133691311328125,45.81437027180664,26.064061281328126Q45.884000301806644,25.994431261328124,45.96587652180664,25.939723371328125Q46.04775274180664,25.885015431328124,46.13872874180664,25.847331941328125Q46.22970471180664,25.809648391328125,46.32628430180664,25.790437521328126Q46.42286389280664,25.771226641328123,46.52133560180664,25.771226581328126Q46.61980731080664,25.771226641328123,46.71638690180664,25.790437521328126Q46.81296649180664,25.809648391328125,46.90394246180664,25.847331881328124Q46.99491846180664,25.885015371328127,47.07679468180664,25.939723311328127Q47.15867090180664,25.994431261328124,47.22830093180664,26.064061281328126Q47.29793095180664,26.133691311328125,47.35263884180664,26.215567531328126Q47.40734678180664,26.297443751328125,47.445030271806644,26.388419751328126Q47.48271382180664,26.479395721328125,47.50192469180664,26.575975311328126Q47.52113557180664,26.672554902328127,47.521135631806644,26.771026611328125L47.52133560180664,26.771026611328125L47.52133560180664,35.68887331132812L47.521135631806644,35.68887331132812Q47.52113557180664,35.78734401132812,47.50192469180664,35.883924511328125Q47.48271382180664,35.980503111328126,47.44503033180664,36.071479811328125Q47.40734684180664,36.16245461132812,47.35263890180664,36.244331311328125Q47.29793095180664,36.326207111328124,47.22830093180664,36.39583781132812Q47.15867090180664,36.46546741132813,47.07679468180664,36.52017501132812Q46.99491846180664,36.57488251132813,46.90394246180664,36.61256691132812Q46.81296649180664,36.65025041132812,46.71638690180664,36.669462211328124Q46.61980731080664,36.68867301132813,46.52133560180664,36.68867301132813Q46.42286389280664,36.68867301132813,46.32628430180664,36.66946121132813Q46.22970471180664,36.65025041132812,46.13872874180664,36.61256691132812Q46.04775274180664,36.57488251132813,45.96587652180664,36.52017501132812Q45.884000301806644,36.46546741132813,45.81437027180664,36.39583781132812Q45.74474025180664,36.326207111328124,45.690032361806644,36.244331311328125Q45.635324421806644,36.16245461132812,45.59764093180664,36.071479811328125Q45.55995738180664,35.980503111328126,45.54074651180664,35.883924511328125Q45.52153563180664,35.78734401132812,45.52153557180664,35.68887331132812L45.52133560180664,35.68887331132812L45.52133560180664,26.771026611328125L45.52153557180664,26.771026611328125Z" fill-rule="evenodd" fill="#313131" fill-opacity="1"/></g><g transform="matrix(0.4999999701976776,0.8660253882408142,-0.8660253882408142,0.4999999701976776,46.445101811186504,-6.903344787568329)"><path d="M28.201224025480958,36.77096462249756Q28.201224085480955,36.67249291349756,28.22043496548096,36.575913322497556Q28.239645835480957,36.47933373249756,28.277329325480956,36.388357762497556Q28.31501281548096,36.29738176249756,28.36972075548096,36.21550554249756Q28.424428705480956,36.13362932249756,28.494058725480958,36.063999292497556Q28.563688755480957,35.99436927249756,28.64556497548096,35.93966138249756Q28.727441195480957,35.88495344249756,28.818417195480958,35.847269952497555Q28.909393165480957,35.80958640249756,29.005972755480958,35.790375532497556Q29.10255234648096,35.77116465249756,29.201024055480957,35.771164592497556Q29.299495764480955,35.77116465249756,29.396075355480956,35.790375532497556Q29.492654945480957,35.80958640249756,29.583630915480956,35.84726989249756Q29.674606915480958,35.88495338249756,29.756483135480956,35.93966132249756Q29.838359355480957,35.99436927249756,29.907989385480956,36.063999292497556Q29.977619405480958,36.13362932249756,30.032327295480957,36.21550554249756Q30.087035235480958,36.29738176249756,30.124718725480957,36.388357762497556Q30.162402275480957,36.47933373249756,30.181613145480956,36.575913322497556Q30.20082402548096,36.67249291349756,30.200824085480956,36.77096462249756L30.201024055480957,36.77096462249756L30.201024055480957,45.68881132249756L30.200824085480956,45.68881132249756Q30.20082402548096,45.78728202249756,30.181613145480956,45.88386252249756Q30.162402275480957,45.98044112249756,30.124718785480958,46.07141782249756Q30.087035295480955,46.162392622497556,30.032327355480955,46.24426932249756Q29.977619405480958,46.32614512249756,29.907989385480956,46.395775822497555Q29.838359355480957,46.46540542249756,29.756483135480956,46.520113022497554Q29.674606915480958,46.57482052249756,29.583630915480956,46.61250492249756Q29.492654945480957,46.65018842249756,29.396075355480956,46.66940022249756Q29.299495764480955,46.68861102249756,29.201024055480957,46.68861102249756Q29.10255234648096,46.68861102249756,29.005972755480958,46.66939922249756Q28.909393165480957,46.65018842249756,28.818417195480958,46.61250492249756Q28.727441195480957,46.57482052249756,28.64556497548096,46.520113022497554Q28.563688755480957,46.46540542249756,28.494058725480958,46.395775822497555Q28.424428705480956,46.32614512249756,28.369720815480957,46.24426932249756Q28.315012875480956,46.162392622497556,28.277329385480957,46.07141782249756Q28.239645835480957,45.98044112249756,28.22043496548096,45.88386252249756Q28.201224085480955,45.78728202249756,28.201224025480958,45.68881132249756L28.201024055480957,45.68881132249756L28.201024055480957,36.77096462249756L28.201224025480958,36.77096462249756Z" fill-rule="evenodd" fill="#313131" fill-opacity="1"/></g><g transform="matrix(-0.4999999701976776,0.8660253882408142,-0.8660253882408142,-0.4999999701976776,105.48733887605471,21.5547996977414)"><path d="M45.52153557180664,41.22897243499756Q45.52153563180664,41.13050072599756,45.54074651180664,41.033921134997556Q45.55995738180664,40.93734154499756,45.59764087180664,40.846365574997556Q45.63532436180664,40.75538957499756,45.69003230180664,40.67351335499756Q45.74474025180664,40.59163713499756,45.81437027180664,40.522007104997556Q45.884000301806644,40.45237708499756,45.96587652180664,40.39766919499756Q46.04775274180664,40.34296125499756,46.13872874180664,40.305277764997555Q46.22970471180664,40.26759421499756,46.32628430180664,40.248383344997556Q46.42286389280664,40.22917246499756,46.52133560180664,40.229172404997556Q46.61980731080664,40.22917246499756,46.71638690180664,40.248383344997556Q46.81296649180664,40.26759421499756,46.90394246180664,40.30527770499756Q46.99491846180664,40.34296119499756,47.07679468180664,40.39766913499756Q47.15867090180664,40.45237708499756,47.22830093180664,40.522007104997556Q47.29793095180664,40.59163713499756,47.35263884180664,40.67351335499756Q47.40734678180664,40.75538957499756,47.445030271806644,40.846365574997556Q47.48271382180664,40.93734154499756,47.50192469180664,41.033921134997556Q47.52113557180664,41.13050072599756,47.521135631806644,41.22897243499756L47.52133560180664,41.22897243499756L47.52133560180664,50.14681913499756L47.521135631806644,50.14681913499756Q47.52113557180664,50.24528983499756,47.50192469180664,50.34187033499756Q47.48271382180664,50.43844893499756,47.44503033180664,50.52942563499756Q47.40734684180664,50.620400434997556,47.35263890180664,50.70227713499756Q47.29793095180664,50.78415293499756,47.22830093180664,50.853783634997555Q47.15867090180664,50.92341323499756,47.07679468180664,50.978120834997554Q46.99491846180664,51.03282833499756,46.90394246180664,51.07051273499756Q46.81296649180664,51.10819623499756,46.71638690180664,51.12740803499756Q46.61980731080664,51.14661883499756,46.52133560180664,51.14661883499756Q46.42286389280664,51.14661883499756,46.32628430180664,51.12740703499756Q46.22970471180664,51.10819623499756,46.13872874180664,51.07051273499756Q46.04775274180664,51.03282833499756,45.96587652180664,50.978120834997554Q45.884000301806644,50.92341323499756,45.81437027180664,50.853783634997555Q45.74474025180664,50.78415293499756,45.690032361806644,50.70227713499756Q45.635324421806644,50.620400434997556,45.59764093180664,50.52942563499756Q45.55995738180664,50.43844893499756,45.54074651180664,50.34187033499756Q45.52153563180664,50.24528983499756,45.52153557180664,50.14681913499756L45.52133560180664,50.14681913499756L45.52133560180664,41.22897243499756L45.52153557180664,41.22897243499756Z" fill-rule="evenodd" fill="#313131" fill-opacity="1"/></g><g transform="matrix(-0.4999999701976776,0.8660253882408142,-0.8660253882408142,-0.4999999701976776,70.84661819034355,21.554629527123183)"><path d="M28.201224025480958,31.22897243499756Q28.201224085480955,31.13050072599756,28.22043496548096,31.03392113499756Q28.239645835480957,30.937341544997558,28.277329325480956,30.84636557499756Q28.31501281548096,30.755389574997558,28.36972075548096,30.67351335499756Q28.424428705480956,30.59163713499756,28.494058725480958,30.52200710499756Q28.563688755480957,30.452377084997558,28.64556497548096,30.397669194997558Q28.727441195480957,30.342961254997558,28.818417195480958,30.30527776499756Q28.909393165480957,30.26759421499756,29.005972755480958,30.24838334499756Q29.10255234648096,30.229172464997557,29.201024055480957,30.22917240499756Q29.299495764480955,30.229172464997557,29.396075355480956,30.24838334499756Q29.492654945480957,30.26759421499756,29.583630915480956,30.305277704997557Q29.674606915480958,30.34296119499756,29.756483135480956,30.39766913499756Q29.838359355480957,30.452377084997558,29.907989385480956,30.52200710499756Q29.977619405480958,30.59163713499756,30.032327295480957,30.67351335499756Q30.087035235480958,30.755389574997558,30.124718725480957,30.84636557499756Q30.162402275480957,30.937341544997558,30.181613145480956,31.03392113499756Q30.20082402548096,31.13050072599756,30.200824085480956,31.22897243499756L30.201024055480957,31.22897243499756L30.201024055480957,40.14681913499756L30.200824085480956,40.14681913499756Q30.20082402548096,40.24528983499756,30.181613145480956,40.34187033499756Q30.162402275480957,40.43844893499756,30.124718785480958,40.52942563499756Q30.087035295480955,40.620400434997556,30.032327355480955,40.70227713499756Q29.977619405480958,40.78415293499756,29.907989385480956,40.853783634997555Q29.838359355480957,40.92341323499756,29.756483135480956,40.978120834997554Q29.674606915480958,41.03282833499756,29.583630915480956,41.07051273499756Q29.492654945480957,41.10819623499756,29.396075355480956,41.12740803499756Q29.299495764480955,41.14661883499756,29.201024055480957,41.14661883499756Q29.10255234648096,41.14661883499756,29.005972755480958,41.12740703499756Q28.909393165480957,41.10819623499756,28.818417195480958,41.07051273499756Q28.727441195480957,41.03282833499756,28.64556497548096,40.978120834997554Q28.563688755480957,40.92341323499756,28.494058725480958,40.853783634997555Q28.424428705480956,40.78415293499756,28.369720815480957,40.70227713499756Q28.315012875480956,40.620400434997556,28.277329385480957,40.52942563499756Q28.239645835480957,40.43844893499756,28.22043496548096,40.34187033499756Q28.201224085480955,40.24528983499756,28.201224025480958,40.14681913499756L28.201024055480957,40.14681913499756L28.201024055480957,31.22897243499756L28.201224025480958,31.22897243499756Z" fill-rule="evenodd" fill="#313131" fill-opacity="1"/></g></g></svg>