<svg xmlns="http://www.w3.org/2000/svg" xmlns:xlink="http://www.w3.org/1999/xlink" fill="none" version="1.1" width="50" height="51.888885498046875" viewBox="0 0 50 51.888885498046875"><path d="M44.9536663125,24.9999693125Q44.9536663125,33.2650513125,39.1093593125,39.1093633125L39.1095583125,39.1095623125Q38.9483643125,39.2707523125,38.8217123125,39.4602963125Q38.6950603125,39.6498413125,38.6078263125,39.8604503125Q38.5205883125,40.0710603125,38.4761163125,40.2946393125Q38.4316403125,40.5182223125,38.4316443125,40.7461853125Q38.4316443125,40.8598933125,38.4427873125,40.9730493125Q38.4539333125,41.0862043125,38.4761123125,41.1977233125Q38.4982983125,41.3092503125,38.5313033125,41.4180563125Q38.5643123125,41.5268703125,38.6078223125,41.6319163125Q38.6513363125,41.7369693125,38.7049403125,41.8372463125Q38.7585373125,41.9375233125,38.8217083125,42.0320663125Q38.8848803125,42.1266093125,38.9570163125,42.2145083125Q39.0291523125,42.3024063125,39.1095543125,42.3828083125Q39.1899563125,42.4632113125,39.2778513125,42.5353433125Q39.3657453125,42.6074753125,39.4602893125,42.6706463125Q39.5548323125,42.7338183125,39.6551133125,42.7874223125Q39.7553943125,42.8410183125,39.8604433125,42.8845333125Q39.9654963125,42.9280473125,40.0743063125,42.9610593125Q40.1831173125,42.9940643125,40.2946353125,43.0162463125Q40.4061583125,43.0384333125,40.5193173125,43.0495753125Q40.6324763125,43.0607223125,40.7461813125,43.0607223125Q40.9741443125,43.0607223125,41.1977233125,43.0162503125Q41.4213063125,42.9717753125,41.6319163125,42.8845363125Q41.8425213125,42.7972983125,42.0320663125,42.6706463125Q42.2216113125,42.5439983125,42.3828053125,42.3828083125L42.3830033125,42.3830073125Q49.5832973125,35.1827053125,49.5832973125,24.9999693125Q49.5832973125,14.8172113125,42.3830073125,7.6169209125Q35.1827163125,0.41663031250000016,24.9999623125,0.4166305124999998Q14.8172113125,0.4166305124999998,7.6169209125,7.6169214125Q0.41663071249999994,14.8172113125,0.4166305124999998,24.9999633125Q0.4166305124999998,35.1827123125,7.6169214125,42.3830073125L7.6171183125,42.3828083125Q7.7783117125,42.5439983125,7.9678550125,42.6706503125Q8.157398712500001,42.7972983125,8.368008612499999,42.8845363125Q8.5786176125,42.9717753125,8.8021994125,43.0162463125Q9.0257807125,43.0607223125,9.2537432125,43.0607223125Q9.3674493125,43.0607223125,9.4806075125,43.0495793125Q9.5937657125,43.0384333125,9.705286512499999,43.0162463125Q9.816807712500001,42.9940643125,9.9256182125,42.9610593125Q10.0344276125,42.9280513125,10.1394777125,42.8845363125Q10.2445288125,42.8410263125,10.3448086125,42.7874223125Q10.445088412499999,42.7338223125,10.5396309125,42.6706463125Q10.6341743125,42.6074753125,10.7220697125,42.5353473125Q10.8099651125,42.4632113125,10.8903675125,42.3828083125Q10.9707699125,42.3024063125,11.0429048125,42.2145083125Q11.1150389125,42.1266093125,11.1782093125,42.0320663125Q11.2413816125,41.9375233125,11.2949819125,41.8372463125Q11.3485832125,41.7369693125,11.3920956125,41.6319163125Q11.4356098125,41.5268703125,11.4686165125,41.4180603125Q11.5016231125,41.3092503125,11.5238066125,41.1977273125Q11.5459900125,41.0862083125,11.5571346125,40.9730493125Q11.5682802125,40.8598933125,11.5682802125,40.7461853125Q11.5682793125,40.5182223125,11.5238066125,40.2946433125Q11.4793339125,40.0710603125,11.3920965125,39.8604503125Q11.3048591125,39.6498413125,11.1782112125,39.4602963125Q11.0515613125,39.2707523125,10.8903684125,39.1095623125L10.8905649125,39.1093633125Q5.046260112500001,33.2650543125,5.046260112500001,24.9999633125Q5.0462599125,16.734868312499998,10.8905640125,10.8905640125Q16.7348673125,5.046260112500001,24.9999623125,5.046260112500001Q33.2650583125,5.0462599125,39.1093633125,10.8905640125Q44.9536663125,16.7348663125,44.9536663125,24.9999693125Z" fill-rule="evenodd" fill="#0E0F12" fill-opacity="1"/><g><path d="M16.338706962499998,35.235504250000005Q14.238706562499999,35.235504250000005,12.5924105625,34.50957725Q10.9461140625,33.78365125,10.0257437625,32.47439225Q9.1053732625,31.16513225,9.1053732625,29.53179925Q9.1053732625,27.74291025,10.1942622625,26.32994825Q11.2831511625,24.91698425,12.8127808625,24.34661525L12.8127808625,24.26883725Q11.620188262500001,23.77624525,10.7257437625,22.57068825Q9.8312992625,21.365132250000002,9.8312992625,19.88735525Q9.8312992625,18.40957625,10.6609287625,17.21698375Q11.4905586625,16.02439115,12.9683360625,15.350317050000001Q14.446114062500001,14.676242850000001,16.338706962499998,14.676242850000001Q18.2312995625,14.676242850000001,19.7090765625,15.350317050000001Q21.1868555625,16.02439115,22.0164855625,17.21698375Q22.8461145625,18.40957625,22.8461145625,19.88735525Q22.8461145625,21.44291025,21.9516695625,22.62254025Q21.0572255625,23.80217025,19.8127815625,24.26883725L19.8127815625,24.34661525Q21.3942625625,24.94290925,22.483151562499998,26.34291125Q23.5720405625,27.74291025,23.5720405625,29.53179925Q23.5720405625,31.16513225,22.6516705625,32.47439225Q21.7312995625,33.78365125,20.0850025625,34.50957725Q18.4387075625,35.235504250000005,16.338706962499998,35.235504250000005ZM16.338706962499998,22.765133249999998Q17.6350035625,22.765133249999998,18.4257435625,22.104021250000002Q19.2164845625,21.44291025,19.2164845625,20.354021250000002Q19.2164845625,19.239206250000002,18.4257435625,18.565132249999998Q17.6350035625,17.89105825,16.338706962499998,17.89105825Q15.0424103625,17.89105825,14.2516698625,18.565132249999998Q13.460928962499999,19.239206250000002,13.460928962499999,20.354021250000002Q13.460928962499999,21.44291025,14.2646326625,22.104021250000002Q15.0683364625,22.765133249999998,16.338706962499998,22.765133249999998ZM16.338706962499998,31.99476225Q17.9201875625,31.99476225,18.9053735625,31.16513225Q19.890559562500002,30.33550225,19.890559562500002,28.98735425Q19.890559562500002,27.61328125,18.9053735625,26.79661325Q17.9201875625,25.97994825,16.338706962499998,25.97994825Q14.7572255625,25.97994825,13.7720398625,26.79661325Q12.786854762499999,27.61328125,12.786854762499999,28.98735425Q12.786854762499999,30.33550225,13.7720398625,31.16513225Q14.7572255625,31.99476225,16.338706962499998,31.99476225ZM33.4757465625,35.235504250000005C38.0905605625,35.235504250000005,40.7090795625,31.73550425,40.7090795625,24.96883725C40.7090795625,18.17624325,38.0905605625,14.676242850000001,33.4757465625,14.676242850000001C28.8868565625,14.676242850000001,26.2683375625,18.17624325,26.2683375625,24.96883725C26.2683375625,31.73550425,28.8868565625,35.235504250000005,33.4757465625,35.235504250000005ZM33.4757465625,31.91698425C31.2201885625,31.91698425,29.9238925625,29.60957725,29.9238925625,24.96883725C29.9238925625,20.32809525,31.2201885625,17.99476225,33.4757465625,17.99476225C35.731300562499996,17.99476225,37.053523562500004,20.32809525,37.053523562500004,24.96883725C37.053523562500004,29.60957725,35.731300562499996,31.91698425,33.4757465625,31.91698425Z" fill="#0E0F12" fill-opacity="1"/></g><g><path d="M15.02723815,49.184567L13.29435035,49.184567L13.29435035,40.9302807L14.89393905,40.9302807L17.51890465,44.9189982L17.58042765,44.9189982L20.205392850000003,40.9302807L21.80498215,40.9302807L21.80498215,49.184567L20.06184055,49.184567L20.06184055,44.2730107L20.00031805,44.2730107L18.21616175,46.918483699999996L16.88317105,46.918483699999996L15.088760650000001,44.3140259L15.02723815,44.3140259L15.02723815,49.184567ZM30.46942125,49.184567L28.56221725,49.184567L27.95724725,47.4106655L25.075936249999998,47.4106655L24.47096325,49.184567L22.574015250000002,49.184567L25.59887925,40.9302807L27.43430325,40.9302807L30.46942125,49.184567ZM26.49095725,43.2886486L25.65014725,45.7290463L27.38303425,45.7290463L26.552479249999998,43.2886486L26.49095725,43.2886486ZM35.668083249999995,44.8984909L38.55964625,49.184567L36.34483325,49.184567L34.60169225,46.3852882L32.94058025,49.184567L30.72576525,49.184567L33.58656725,44.8369679L30.87957225,40.9302807L33.073879250000005,40.9302807L34.67346725,43.3911862L36.211532250000005,40.9302807L38.39558825,40.9302807L35.668083249999995,44.8984909Z" fill="#0E0F12" fill-opacity="1"/></g></svg>