<svg xmlns="http://www.w3.org/2000/svg" xmlns:xlink="http://www.w3.org/1999/xlink" fill="none" version="1.1" width="50" height="50" viewBox="0 0 50 50"><ellipse cx="25.046348571777344" cy="25.046348571777344" rx="23.425923943519592" ry="23.425923943519592" fill="#FFFFFF" fill-opacity="1"/><ellipse cx="25.046348571777344" cy="25.046348571777344" rx="21.111109137535095" ry="21.111109137535095" fill-opacity="0" stroke-opacity="1" stroke="#FF5C43" fill="none" stroke-width="4.629629611968994"/><g><path d="M16.338706962499998,35.235015968750005Q14.238706562499999,35.235015968750005,12.5924105625,34.50908896875Q10.9461140625,33.78316296875,10.0257437625,32.47390396875Q9.1053732625,31.16464396875,9.1053732625,29.53131096875Q9.1053732625,27.74242196875,10.1942622625,26.32945996875Q11.2831511625,24.91649596875,12.8127808625,24.34612696875L12.8127808625,24.26834896875Q11.620188262500001,23.77575696875,10.7257437625,22.57019996875Q9.8312992625,21.364643968750002,9.8312992625,19.88686696875Q9.8312992625,18.40908796875,10.6609287625,17.21649546875Q11.4905586625,16.02390286875,12.9683360625,15.349828768750001Q14.446114062500001,14.675754568750001,16.338706962499998,14.675754568750001Q18.2312995625,14.675754568750001,19.7090765625,15.349828768750001Q21.1868555625,16.02390286875,22.0164855625,17.21649546875Q22.8461145625,18.40908796875,22.8461145625,19.88686696875Q22.8461145625,21.44242196875,21.9516695625,22.62205196875Q21.0572255625,23.80168196875,19.8127815625,24.26834896875L19.8127815625,24.34612696875Q21.3942625625,24.94242096875,22.483151562499998,26.34242296875Q23.5720405625,27.74242196875,23.5720405625,29.53131096875Q23.5720405625,31.16464396875,22.6516705625,32.47390396875Q21.7312995625,33.78316296875,20.0850025625,34.50908896875Q18.4387075625,35.235015968750005,16.338706962499998,35.235015968750005ZM16.338706962499998,22.764644968749998Q17.6350035625,22.764644968749998,18.4257435625,22.103532968750002Q19.2164845625,21.44242196875,19.2164845625,20.353532968750002Q19.2164845625,19.238717968750002,18.4257435625,18.564643968749998Q17.6350035625,17.89056996875,16.338706962499998,17.89056996875Q15.0424103625,17.89056996875,14.2516698625,18.564643968749998Q13.460928962499999,19.238717968750002,13.460928962499999,20.353532968750002Q13.460928962499999,21.44242196875,14.2646326625,22.103532968750002Q15.0683364625,22.764644968749998,16.338706962499998,22.764644968749998ZM16.338706962499998,31.99427396875Q17.9201875625,31.99427396875,18.9053735625,31.16464396875Q19.890559562500002,30.33501396875,19.890559562500002,28.98686596875Q19.890559562500002,27.61279296875,18.9053735625,26.79612496875Q17.9201875625,25.97945996875,16.338706962499998,25.97945996875Q14.7572255625,25.97945996875,13.7720398625,26.79612496875Q12.786854762499999,27.61279296875,12.786854762499999,28.98686596875Q12.786854762499999,30.33501396875,13.7720398625,31.16464396875Q14.7572255625,31.99427396875,16.338706962499998,31.99427396875ZM33.4757465625,35.235015968750005C38.0905605625,35.235015968750005,40.7090795625,31.73501596875,40.7090795625,24.96834896875C40.7090795625,18.17575496875,38.0905605625,14.675754568750001,33.4757465625,14.675754568750001C28.8868565625,14.675754568750001,26.2683375625,18.17575496875,26.2683375625,24.96834896875C26.2683375625,31.73501596875,28.8868565625,35.235015968750005,33.4757465625,35.235015968750005ZM33.4757465625,31.91649596875C31.2201885625,31.91649596875,29.9238925625,29.60908896875,29.9238925625,24.96834896875C29.9238925625,20.32760696875,31.2201885625,17.99427396875,33.4757465625,17.99427396875C35.731300562499996,17.99427396875,37.053523562500004,20.32760696875,37.053523562500004,24.96834896875C37.053523562500004,29.60908896875,35.731300562499996,31.91649596875,33.4757465625,31.91649596875Z" fill="#0E0F12" fill-opacity="0.9800000190734863"/></g></svg>