<svg xmlns="http://www.w3.org/2000/svg" xmlns:xlink="http://www.w3.org/1999/xlink" fill="none" version="1.1" width="50" height="51.2498779296875" viewBox="0 0 50 51.2498779296875"><path d="M44.9536663125,24.9999693125Q44.9536663125,33.2650513125,39.1093593125,39.1093633125L39.1095583125,39.1095623125Q38.9483643125,39.2707523125,38.8217123125,39.4602963125Q38.6950603125,39.6498413125,38.6078263125,39.8604503125Q38.5205883125,40.0710603125,38.4761163125,40.2946393125Q38.4316403125,40.5182223125,38.4316443125,40.7461853125Q38.4316443125,40.8598933125,38.4427873125,40.9730493125Q38.4539333125,41.0862043125,38.4761123125,41.1977233125Q38.4982983125,41.3092503125,38.5313033125,41.4180563125Q38.5643123125,41.5268703125,38.6078223125,41.6319163125Q38.6513363125,41.7369693125,38.7049403125,41.8372463125Q38.7585373125,41.9375233125,38.8217083125,42.0320663125Q38.8848803125,42.1266093125,38.9570163125,42.2145083125Q39.0291523125,42.3024063125,39.1095543125,42.3828083125Q39.1899563125,42.4632113125,39.2778513125,42.5353433125Q39.3657453125,42.6074753125,39.4602893125,42.6706463125Q39.5548323125,42.7338183125,39.6551133125,42.7874223125Q39.7553943125,42.8410183125,39.8604433125,42.8845333125Q39.9654963125,42.9280473125,40.0743063125,42.9610593125Q40.1831173125,42.9940643125,40.2946353125,43.0162463125Q40.4061583125,43.0384333125,40.5193173125,43.0495753125Q40.6324763125,43.0607223125,40.7461813125,43.0607223125Q40.9741443125,43.0607223125,41.1977233125,43.0162503125Q41.4213063125,42.9717753125,41.6319163125,42.8845363125Q41.8425213125,42.7972983125,42.0320663125,42.6706463125Q42.2216113125,42.5439983125,42.3828053125,42.3828083125L42.3830033125,42.3830073125Q49.5832973125,35.1827053125,49.5832973125,24.9999693125Q49.5832973125,14.8172113125,42.3830073125,7.6169209125Q35.1827163125,0.41663031250000016,24.9999623125,0.4166305124999998Q14.8172113125,0.4166305124999998,7.6169209125,7.6169214125Q0.41663071249999994,14.8172113125,0.4166305124999998,24.9999633125Q0.4166305124999998,35.1827123125,7.6169214125,42.3830073125L7.6171183125,42.3828083125Q7.7783117125,42.5439983125,7.9678550125,42.6706503125Q8.157398712500001,42.7972983125,8.368008612499999,42.8845363125Q8.5786176125,42.9717753125,8.8021994125,43.0162463125Q9.0257807125,43.0607223125,9.2537432125,43.0607223125Q9.3674493125,43.0607223125,9.4806075125,43.0495793125Q9.5937657125,43.0384333125,9.705286512499999,43.0162463125Q9.816807712500001,42.9940643125,9.9256182125,42.9610593125Q10.0344276125,42.9280513125,10.1394777125,42.8845363125Q10.2445288125,42.8410263125,10.3448086125,42.7874223125Q10.445088412499999,42.7338223125,10.5396309125,42.6706463125Q10.6341743125,42.6074753125,10.7220697125,42.5353473125Q10.8099651125,42.4632113125,10.8903675125,42.3828083125Q10.9707699125,42.3024063125,11.0429048125,42.2145083125Q11.1150389125,42.1266093125,11.1782093125,42.0320663125Q11.2413816125,41.9375233125,11.2949819125,41.8372463125Q11.3485832125,41.7369693125,11.3920956125,41.6319163125Q11.4356098125,41.5268703125,11.4686165125,41.4180603125Q11.5016231125,41.3092503125,11.5238066125,41.1977273125Q11.5459900125,41.0862083125,11.5571346125,40.9730493125Q11.5682802125,40.8598933125,11.5682802125,40.7461853125Q11.5682793125,40.5182223125,11.5238066125,40.2946433125Q11.4793339125,40.0710603125,11.3920965125,39.8604503125Q11.3048591125,39.6498413125,11.1782112125,39.4602963125Q11.0515613125,39.2707523125,10.8903684125,39.1095623125L10.8905649125,39.1093633125Q5.046260112500001,33.2650543125,5.046260112500001,24.9999633125Q5.0462599125,16.734868312499998,10.8905640125,10.8905640125Q16.7348673125,5.046260112500001,24.9999623125,5.046260112500001Q33.2650583125,5.0462599125,39.1093633125,10.8905640125Q44.9536663125,16.7348663125,44.9536663125,24.9999693125Z" fill-rule="evenodd" fill="#0E0F12" fill-opacity="1"/><g><path d="M14.334498431250001,48.64089159375L12.33334118125,48.64089159375L12.33334118125,39.43556789375L14.17440583125,39.43556789375L17.75361873125,44.86728099375L17.82222983125,44.86728099375L17.82222983125,39.43556789375L19.82338713125,39.43556789375L19.82338713125,48.64089159375L18.08523893125,48.64089159375L14.40310953125,43.20917939375L14.334498431250001,43.20917939375L14.334498431250001,48.64089159375ZM25.35801703125,41.150845993749996Q24.30598003125,41.150845993749996,23.71706803125,41.91700319375Q23.12815603125,42.68316079375,23.12815603125,44.04394769375Q23.12815603125,45.41617009375,23.69419803125,46.17089179375Q24.260239031250002,46.92561459375,25.28940603125,46.92561459375Q25.76968403125,46.92561459375,26.147045031250002,46.771239593749996Q26.524406031250003,46.61686459375,26.867461031250002,46.25093839375L26.867461031250002,45.15316009375L24.92348003125,45.15316009375L24.92348003125,43.32353119375L28.75426703125,43.32353119375L28.75426703125,47.00566059375Q28.07959003125,47.90904059375,27.19908103125,48.35501159375Q26.31857303125,48.80098459375,25.28940603125,48.80098459375Q24.03153503125,48.80098459375,23.07669703125,48.21778959375Q22.12186003125,47.63459559375,21.601559031249998,46.55397059375Q21.08125783125,45.47334579375,21.08125783125,44.04394769375Q21.08125783125,42.60311459375,21.61299403125,41.52820729375Q22.14473003125,40.45329949375,23.11100303125,39.86438749375Q24.07727603125,39.27547549375,25.35801703125,39.27547549375Q26.51297003125,39.27547549375,27.38776203125,39.80721189375Q28.26255403125,40.33894829375,28.77713803125,41.29950329375L27.221952031249998,42.40871619375Q26.92463703125,41.83695699375,26.41005303125,41.49390169375Q25.89547103125,41.150845993749996,25.35801703125,41.150845993749996ZM33.52273903125,39.43556789375Q34.62051803125,39.43556789375,35.43241503125,39.81864739375Q36.244312031250004,40.20172599375,36.67885003125,40.91642479375Q37.11338803125,41.631123493749996,37.11338803125,42.59167909375Q37.11338803125,43.55223469375,36.69028503125,44.26121619375Q36.26718303125,44.97019769375,35.48387303125,45.35327629375Q34.70056303125,45.736354793749996,33.63709103125,45.736354793749996L32.19625903125,45.736354793749996L32.19625903125,48.64089159375L30.19510103125,48.64089159375L30.19510103125,39.43556789375L33.52273903125,39.43556789375ZM33.22542403125,43.91816039375Q34.08306303125,43.91816039375,34.574776031249996,43.56367019375Q35.06649003125,43.20917939375,35.06649003125,42.59167909375Q35.06649003125,41.97417929375,34.574776031249996,41.61397079375Q34.08306303125,41.25376269375,33.22542403125,41.25376269375L32.19625903125,41.25376269375L32.19625903125,43.91816039375L33.22542403125,43.91816039375Z" fill="#0E0F12" fill-opacity="1"/></g><path d="M24.99996921875,17.433666218749998C30.46105021875,17.433666218749998,35.88839721875,18.28939621875,41.08453321875,19.96972021875Q40.89895221875,19.37894821875,40.66845321875,18.79672121875Q39.38375621875,15.55164001875,36.91585721875,13.08373931875Q34.447963218750004,10.61584301875,31.20287321875,9.33114501875Q28.21418021875,8.14794921875,24.99980021875,8.14794921875Q21.78541621875,8.14794921875,18.796725218749998,9.33114501875Q15.55163911875,10.61584401875,13.08374161875,13.08373931875Q10.615844718750001,15.55163621875,9.331146618750001,18.79672121875Q9.10062765875,19.37899721875,8.91502099875,19.96984221875C14.11127851875,18.289437218750003,19.53875821875,17.433666218749998,24.99996921875,17.433666218749998ZM25.85529721875,23.62415121875L24.14411021875,23.62415121875L24.31187221875,20.87282721875L25.68753421875,20.87282721875L25.85529721875,23.62415121875ZM8.14794921875,24.99979821875Q8.14794921875,24.42536921875,8.18573589975,23.85814921875Q13.80634691875,21.792332218749998,19.699629218749998,21.156041218749998L13.30684761875,33.94160221875L12.26084041875,36.033611218749996Q10.39233731875,33.883392218750004,9.33114501875,31.20287121875Q8.14794921875,28.21418021875,8.14794921875,24.99979821875ZM41.85165421875,24.99979821875Q41.85165421875,24.42531221875,41.81385821875,23.85802221875Q36.19341821875,21.79231321875,30.30030821875,21.156041218749998L36.69309621875,33.94160221875L37.738973218750004,36.03336721875Q39.60731521875,33.88323821875,40.66845321875,31.20287121875Q41.85165421875,28.21418021875,41.85165421875,24.99979821875ZM24.06022321875,24.99981121875L23.85052521875,28.43896321875L26.14888221875,28.43896321875L25.93918021875,24.99981121875L24.06022321875,24.99981121875ZM26.54732721875,34.97335421875L23.45208521875,34.97335421875L23.72470021875,30.50245521875L26.27470621875,30.50245521875L26.54732721875,34.97335421875Z" fill-rule="evenodd" fill="#0E0F12" fill-opacity="1"/></svg>