<svg xmlns="http://www.w3.org/2000/svg" xmlns:xlink="http://www.w3.org/1999/xlink" fill="none" version="1.1" width="34" height="34" viewBox="0 0 34 34"><defs><clipPath id="master_svg0_6_5591"><rect x="0" y="0" width="34" height="34" rx="0"/></clipPath></defs><g clip-path="url(#master_svg0_6_5591)"><path d="M26.9192715,14.87266065234375Q26.9192715,17.16953165234375,26.0738065,19.30513365234375Q25.4196895,20.95740465234375,24.3362965,22.32771265234375L29.3021145,27.29353165234375C29.5787375,27.57015465234375,29.5787375,28.01864465234375,29.3021145,28.29526665234375L28.3003805,29.29700265234375C28.0237575,29.57362165234375,27.5752675,29.57362165234375,27.2986455,29.29699865234375L22.3328475,24.33120365234375Q20.9624655,25.41469965234375,19.3100775,26.06886265234375Q17.174473499999998,26.91432765234375,14.8776045,26.91432765234375Q12.5807333,26.91432765234375,10.445129900000001,26.06886265234375Q8.126325099999999,25.15086965234375,6.3628599999999995,23.38740365234375Q4.5993979,21.62394165234375,3.68140334,19.30513365234375Q2.8359375,17.169529652343748,2.8359375,14.87266065234375Q2.8359375,12.57578945234375,3.68140334,10.440186052343751Q4.5993986,8.12137795234375,6.3628599999999995,6.3579161523437495Q8.1263218,4.59445485234375,10.445129900000001,3.67645949234375Q12.5807333,2.83099365234375,14.8776045,2.83099365234375Q17.1744755,2.83099365234375,19.3100775,3.67645949234375Q21.6288875,4.59445475234375,23.3923475,6.3579161523437495Q25.1558155,8.12138085234375,26.0738065,10.440186052343751Q26.9192715,12.57578945234375,26.9192715,14.87266065234375ZM24.0859375,14.87266065234375Q24.0859375,13.11623165234375,23.4394055,11.48312185234375Q22.7374095,9.70991515234375,21.3888795,8.36138585234375Q20.0403495,7.01285605234375,18.267145499999998,6.310859952343749Q16.6340365,5.66432715234375,14.8776045,5.66432715234375Q13.1211745,5.66432715234375,11.4880657,6.310859952343749Q9.7148581,7.01285695234375,8.3663297,8.36138585234375Q7.0178008,9.70991425234375,6.315803799999999,11.48312185234375Q5.669271,13.11622965234375,5.669271,14.87266065234375Q5.669271,16.62909065234375,6.315803799999999,18.262201652343748Q7.0177994,20.03540565234375,8.3663297,21.38393565234375Q9.71486,22.73246565234375,11.4880657,23.43446165234375Q13.1211745,24.08099565234375,14.8776045,24.08099365234375Q16.6340335,24.08099365234375,18.267145499999998,23.43446165234375Q20.0403495,22.73246565234375,21.3888795,21.38393565234375Q22.7374095,20.03540565234375,23.4394055,18.262201652343748Q24.0859375,16.62908965234375,24.0859375,14.87266065234375Z" fill-rule="evenodd" fill="#313131" fill-opacity="1"/></g></svg>