<svg xmlns="http://www.w3.org/2000/svg" xmlns:xlink="http://www.w3.org/1999/xlink" fill="none" version="1.1" width="34" height="34" viewBox="0 0 34 34"><defs><clipPath id="master_svg0_6_5598"><rect x="0" y="0" width="34" height="34" rx="0"/></clipPath></defs><g clip-path="url(#master_svg0_6_5598)"><path d="M15.5933780234375,4.781999173671875C16.3966270234375,4.073243383671875,17.6032040234375,4.073311493671875,18.406452023437502,4.781999173671875L27.6037060234375,12.897687863671875C28.5179670234375,13.704337163671875,29.0413110234375,14.865098763671876,29.0413990234375,16.084338763671873L29.0413990234375,26.208007763671876C29.0413990234375,27.772771763671876,27.7731990234375,29.041057763671876,26.2083470234375,29.041057763671876L7.791432123437501,29.041057763671876C6.2267524234375,29.040885763671874,4.9583740234375,27.772683763671875,4.9583740234375,26.208007763671876L4.9583740234375,16.084338763671873C4.9584587335555,14.865098763671876,5.4819060534375,13.704337163671875,6.3960725234375,12.897687863671875L15.5933780234375,4.781999173671875ZM16.9173370234375,17.708772763671874C16.5600830234375,17.708772763671874,16.2585890234375,17.974397763671874,16.2142180234375,18.328847763671874L15.3285180234375,25.411897763671874C15.2757320234375,25.834686763671876,15.6055330234375,26.208772763671874,16.0316380234375,26.208772763671874L17.9681930234375,26.208772763671874C18.3942120234375,26.208772763671874,18.7240970234375,25.834686763671876,18.6712280234375,25.411897763671874L17.7856120234375,18.328847763671874C17.7412420234375,17.974567763671875,17.440429023437503,17.708943763671876,17.0833430234375,17.708772763671874L16.9173370234375,17.708772763671874Z" fill="#313131" fill-opacity="1" style="mix-blend-mode:passthrough"/></g></svg>