<svg xmlns="http://www.w3.org/2000/svg" xmlns:xlink="http://www.w3.org/1999/xlink" fill="none" version="1.1" width="40.068206787109375" height="40.068359375" viewBox="0 0 40.068206787109375 40.068359375"><defs><clipPath id="master_svg0_6_5804/2_5384"><rect x="-1.5025575160980225" y="-1.5025575160980225" width="43.07331418991089" height="43.07331418991089" rx="0"/></clipPath></defs><g clip-path="url(#master_svg0_6_5804/2_5384)"><path d="M34.25889351609802,34.14158751609802Q34.15304751609802,34.259809516098024,34.024865516098025,34.35334951609802Q33.89668451609802,34.44688551609802,33.75180951609802,34.51162851609802Q33.60693951609802,34.57637151609802,33.45174951609802,34.60947551609802Q33.296560516098026,34.64257551609802,33.13787651609802,34.64257551609802Q33.063956516098024,34.64257551609802,32.99039251609803,34.63533151609802Q32.91682551609802,34.62808351609802,32.84432151609802,34.61366051609802Q32.77182151609802,34.599241516098026,32.70108351609802,34.57778351609802Q32.63034651609802,34.55632151609802,32.56204951609802,34.52803251609802Q32.493756516098024,34.49974651609802,32.42856551609802,34.464898516098025Q32.363372516098025,34.43005551609802,32.301908516098024,34.388982516098025Q32.24044751609802,34.34791751609802,32.183305516098024,34.30102351609802Q32.12616551609803,34.254129516098025,32.07389251609803,34.201856516098026Q32.02162351609802,34.14958751609802,31.97472751609802,34.09244751609802Q31.927831516098024,34.03530251609802,31.886762516098024,33.973836516098025Q31.845695516098022,33.91237851609802,31.810849516098024,33.847184516098025Q31.77600251609802,33.781991516098024,31.747712516098023,33.71369751609802Q31.71942651609802,33.64540651609802,31.697969516098023,33.574670516098024Q31.67651151609802,33.50393051609802,31.662088516098024,33.43142851609802Q31.647668516098022,33.35893051609803,31.640422516098024,33.28536351609802Q31.633178516098024,33.211799516098026,31.633176516098022,33.13787651609802Q31.633174516098023,32.97989451609802,31.665986516098023,32.82536051609802Q31.69879651609802,32.67082551609802,31.762988516098023,32.526477516098026Q31.82717651609802,32.38212551609802,31.91994851609802,32.25425551609803Q32.012719516098024,32.12638651609802,32.130027516098025,32.02057451609802Q37.06308551609802,27.049007516098023,37.06308551609802,20.034099516098024Q37.06308551609802,12.980461516098023,32.07541051609802,7.992788116098023Q27.08773551609802,3.0051143160980223,20.034101516098023,3.0051150160980225Q12.980460516098022,3.0051150160980225,7.992788116098023,7.992789016098023Q3.005114816098023,12.980462516098022,3.0051150160980225,20.034099516098024Q3.0051150160980225,27.049018516098023,7.938186416098023,32.02059151609802Q8.055488316098023,32.12640551609802,8.148256016098022,32.25427451609802Q8.241023816098021,32.38214051609802,8.305211816098023,32.52648751609802Q8.369400216098022,32.67083551609802,8.402210016098023,32.82536651609802Q8.435019216098024,32.97989851609802,8.435019216098024,33.13787651609802Q8.435019216098024,33.211799516098026,8.427773716098024,33.28536351609802Q8.420528216098022,33.35892651609802,8.406106216098022,33.43142451609802Q8.391685216098022,33.50392651609802,8.370226616098023,33.57466251609802Q8.348768916098022,33.645402516098024,8.320480116098022,33.713693516098026Q8.292192216098023,33.781991516098024,8.257345416098023,33.847181516098026Q8.222499616098023,33.91237451609802,8.181430616098023,33.973836516098025Q8.140362516098023,34.03530251609802,8.093467516098023,34.09244351609802Q8.046572916098022,34.14958751609802,7.994302516098022,34.201856516098026Q7.942032616098023,34.254129516098025,7.884891316098022,34.30101951609802Q7.827749016098022,34.34791751609802,7.766285616098022,34.388982516098025Q7.704822816098022,34.43005551609802,7.639630116098022,34.464898516098025Q7.574437416098022,34.49974651609802,7.506142816098023,34.52803251609802Q7.437848816098023,34.55632151609802,7.367111016098023,34.57778351609802Q7.296372616098022,34.599241516098026,7.223871916098022,34.61366051609802Q7.151371716098023,34.62808351609802,7.0778067160980225,34.63533151609802Q7.004241716098022,34.64257551609802,6.9303200160980225,34.64257551609802Q6.771637716098023,34.64257551609802,6.616446216098023,34.60947551609802Q6.461254816098022,34.57637151609802,6.316382216098022,34.51162851609802Q6.171508516098022,34.44688551609802,6.043328016098022,34.35334151609802Q5.915147516098022,34.25980551609802,5.809298716098023,34.14158451609802Q1.609802247060088e-8,28.29099451609802,1.609802247060088e-8,20.034099516098024Q-6.839019774940169e-7,11.735704516098023,5.867851016098022,5.8678520160980225Q11.735703516098022,1.609802247060088e-8,20.034101516098023,1.609802247060088e-8Q28.33249251609802,-0.000001183901977563906,34.200345516098025,5.867851016098022Q40.06819651609802,11.735701516098022,40.06819651609802,20.034099516098024Q40.06819651609802,28.291002516098022,34.25889351609802,34.14158751609802Z" fill-rule="evenodd" fill="#313131" fill-opacity="1"/><g><path d="M11.530754832531738,39.72158778344726L9.865420402531738,39.72158778344726L9.865420402531738,32.06105038344727L11.397527932531737,32.06105038344727L14.376097232531738,36.58124348344727L14.433194632531738,36.58124348344727L14.433194632531738,32.06105038344727L16.098528832531738,32.06105038344727L16.098528832531738,39.72158778344726L14.652067232531738,39.72158778344726L11.587852032531739,35.20139508344727L11.530754832531738,35.20139508344727L11.530754832531738,39.72158778344726ZM20.691620532531736,33.488479583447265Q19.816130532531737,33.488479583447265,19.326046532531738,34.12606478344726Q18.83596323253174,34.763649983447266,18.83596323253174,35.89607718344727Q18.83596323253174,37.03802108344726,19.30701453253174,37.666089983447264Q19.778065532531738,38.29415898344727,20.63452453253174,38.29415898344727Q21.034203532531738,38.29415898344727,21.348238532531738,38.16569038344727Q21.662272532531738,38.037221883447266,21.947758532531736,37.73270318344726L21.947758532531736,36.819148583447266L20.330005532531736,36.819148583447266L20.330005532531736,35.29655698344727L23.51793153253174,35.29655698344727L23.51793153253174,38.360772083447266Q22.95647553253174,39.112551683447265,22.22372953253174,39.48368358344727Q21.490981532531737,39.854815783447265,20.63452453253174,39.854815783447265Q19.58774253253174,39.854815783447265,18.79313943253174,39.369488683447265Q17.998537032531736,38.88416288344727,17.565550832531738,37.984882383447264Q17.13256363253174,37.08560178344727,17.13256363253174,35.89607718344727Q17.13256363253174,34.69703678344727,17.575066532531736,33.802514083447264Q18.017569532531738,32.907991883447266,18.82168863253174,32.41790768344727Q19.62580653253174,31.927823583447264,20.691620532531736,31.927823583447264Q21.65275653253174,31.927823583447264,22.38074553253174,32.370326483447265Q23.10873553253174,32.812829983447266,23.536963532531736,33.61219028344726L22.24276053253174,34.53526118344727Q21.995339532531737,34.05945158344726,21.56711053253174,33.77396588344727Q21.13888253253174,33.488479583447265,20.691620532531736,33.488479583447265ZM27.473631532531737,32.06105038344727Q28.38718653253174,32.06105038344727,29.062836532531737,32.379842783447266Q29.73848853253174,32.69863558344726,30.10010253253174,33.29339788344726Q30.461718532531737,33.888159783447264,30.461718532531737,34.687520483447265Q30.461718532531737,35.48688078344726,30.109618532531737,36.07688518344727Q29.757519532531738,36.66688918344727,29.10566053253174,36.98568158344727Q28.453801532531738,37.304474383447264,27.568795532531738,37.304474383447264L26.36975353253174,37.304474383447264L26.36975353253174,39.72158778344726L24.704419532531738,39.72158778344726L24.704419532531738,32.06105038344727L27.473631532531737,32.06105038344727ZM27.226210532531738,35.791398983447266Q27.93992553253174,35.791398983447266,28.349122532531737,35.49639698344727Q28.75831853253174,35.20139508344727,28.75831853253174,34.687520483447265Q28.75831853253174,34.173645983447265,28.349122532531737,33.87388558344726Q27.93992553253174,33.574125283447266,27.226210532531738,33.574125283447266L26.36975353253174,33.574125283447266L26.36975353253174,35.791398983447266L27.226210532531738,35.791398983447266Z" fill="#313131" fill-opacity="1"/></g><path d="M20.034238064392092,13.73767086439209C24.57887406439209,13.73767086439209,29.09543106439209,14.449796664392089,33.419583064392086,15.84813876439209Q33.26514506439209,15.35650636439209,33.07332906439209,14.87198546439209Q32.00421806439209,12.17147536439209,29.95047106439209,10.11772396439209Q27.89672406439209,8.06397606439209,25.19620806439209,6.99486851439209Q22.70906006439209,6.01023006439209,20.034100064392092,6.01023006439209Q17.359135064392092,6.01023006439209,14.87198826439209,6.99486851439209Q12.171474464392091,8.06397676439209,10.117725864392089,10.11772396439209Q8.06397726439209,12.17147206439209,6.994869944392089,14.87198546439209Q6.80303543439209,15.35654736439209,6.64857626439209,15.84824086439209C10.972826964392091,14.44983096439209,15.48949816439209,13.73767086439209,20.034238064392092,13.73767086439209ZM20.746031064392092,18.889303064392088L19.32200406439209,18.889303064392088L19.46161506439209,16.59969106439209L20.606421064392087,16.59969106439209L20.746031064392092,18.889303064392088ZM6.01023006439209,20.03409706439209Q6.01023006439209,19.55606706439209,6.04167560139209,19.084034064392092Q10.71906756439209,17.364890064392092,15.62337206439209,16.83537706439209L10.30339096439209,27.47533906439209L9.43291906439209,29.21627706439209Q7.87797786439209,27.42689606439209,6.99486851439209,25.19620606439209Q6.01023006439209,22.70906006439209,6.01023006439209,20.03409706439209ZM34.05796906439209,20.03409706439209Q34.05796906439209,19.55601806439209,34.02651306439209,19.08392706439209Q29.34926706439209,17.364876064392092,24.44510706439209,16.83537706439209L29.76509006439209,27.47533906439209L30.63545506439209,29.21607506439209Q32.19026306439209,27.42676606439209,33.07332906439209,25.19620606439209Q34.05796906439209,22.70906006439209,34.05796906439209,20.03409706439209ZM19.252197064392092,20.03410806439209L19.077687064392087,22.89612106439209L20.990349064392092,22.89612106439209L20.815836064392087,20.03410806439209L19.252197064392092,20.03410806439209ZM21.32192806439209,28.33394506439209L18.74611206439209,28.33394506439209L18.972979064392092,24.61332806439209L21.09505606439209,24.61332806439209L21.32192806439209,28.33394506439209Z" fill-rule="evenodd" fill="#313131" fill-opacity="1"/></g></svg>