<svg xmlns="http://www.w3.org/2000/svg" xmlns:xlink="http://www.w3.org/1999/xlink" fill="none" version="1.1" width="34" height="34" viewBox="0 0 34 34"><defs><clipPath id="master_svg0_6_5595"><rect x="0" y="0" width="34" height="34" rx="0"/></clipPath></defs><g clip-path="url(#master_svg0_6_5595)"><path d="M5.6666666,4.625458146362305C5.6668437,3.7110424063623046,6.5207467,3.0358450263623045,7.410512199999999,3.2468360443623046L14.820387,5.0045298463623045C16.097725,5.307498246362305,16.999858,6.448962946362305,17,7.761774046362305L17,24.083190646362304L19.125,24.083190646362304L19.125,11.333190946362304C19.125283,10.159836746362306,20.076574,9.208190946362304,21.25,9.208190946362304L26.208332,9.208190946362304C27.381758,9.208190946362304,28.33305,10.159836746362306,28.333332,11.333190946362304L28.333332,25.782766646362305L29.484375,26.704164646362305C29.652109,26.838462646362306,29.749859,27.041967646362306,29.75,27.256877646362305L29.75,28.333190646362304C29.75,28.724401646362306,29.433586,29.041522646362306,29.042374,29.041522646362306L4.95833331,29.041522646362306C4.56713504,29.041522646362306,4.25,28.724401646362306,4.25,28.333190646362304L4.25,27.256877646362305C4.2501557072,27.041967646362306,4.347870246,26.838462646362306,4.515625,26.704164646362305L5.6666666,25.782766646362305L5.6666666,4.625458146362305ZM11.2503166,17.708190646362304C10.8931751,17.708190646362304,10.5919209,17.974310646362305,10.5475082,18.328690646362304L9.662091700000001,25.412025646362306C9.6092501,25.834756646362305,9.9388371,26.208190646362304,10.3649001,26.208190646362304L12.3017673,26.208190646362304C12.727829,26.208190646362304,13.057416,25.834756646362305,13.0045748,25.412025646362306L12.1191578,18.328690646362304C12.074745199999999,17.974310646362305,11.7734919,17.708190646362304,11.416350399999999,17.708190646362304L11.2503166,17.708190646362304Z" fill="#000000" fill-opacity="1" style="mix-blend-mode:passthrough"/></g></svg>