<svg xmlns="http://www.w3.org/2000/svg" xmlns:xlink="http://www.w3.org/1999/xlink" fill="none" version="1.1" width="40" height="56" viewBox="0 0 40 56"><g><path d="M16.2500005,30.402169985839844Q12.5,32.567235985839844,12.5,36.897361985839844Q12.5,40.00395798583985,14.6966989,42.20065698583984Q16.893404,44.397361985839844,20,44.397361985839844Q23.106594,44.397361985839844,25.303299000000003,42.20065698583984Q27.5,40.003955985839845,27.5,36.897361985839844Q27.5,32.56723398583985,23.75,30.402169985839844L23,29.969157985839843L23,14.602622985839844Q23,11.602622985839844,20,11.602622985839844Q17,11.602622985839844,16.9999995,14.602623485839842L17,29.969157985839843L16.2500005,30.402169985839844ZM14.7499995,27.804093985839845L15.5,29.103131985839845L14,29.103131985839845L13.9999995,14.602622485839845Q13.9999998,12.117341485839844,15.7573595,10.359982135839843Q17.514719,8.602622985839844,20,8.602622985839844Q22.485281,8.602622985839844,24.24264,10.359982135839843Q26,12.117341485839844,26,14.602622985839844L26,29.103131985839845L24.5,29.103131985839845L25.25,27.804093985839845Q30.5,30.835183985839844,30.5,36.897361985839844Q30.5,41.24659898583984,27.42462,44.321979985839846Q24.349237000000002,47.397361985839844,20,47.397361985839844Q15.6507607,47.397361985839844,12.5753787,44.321979985839846Q9.5,41.24660098583985,9.5,36.897361985839844Q9.5,30.835183985839844,14.7499995,27.804093985839845Z" fill="#0E0F12" fill-opacity="0.9800000190734863"/></g><ellipse cx="20.00000023841858" cy="36.92548990249634" rx="5.400000095367432" ry="5.400000095367432" fill="#0E0F12" fill-opacity="0.9800000190734863"/><path d="M18.5002999,26.92374038696289Q18.5002998,26.85006484396289,18.5075214,26.77674406696289Q18.5147429,26.70342328696289,18.5291164,26.63116341696289Q18.5434897,26.55890351696289,18.5648766,26.48840039696289Q18.5862634,26.417897346962892,18.6144578,26.34983002696289Q18.6426522,26.28176265696289,18.6773825,26.21678662696289Q18.712113,26.15181064696289,18.7530451,26.09055173696289Q18.7939769,26.02929270696289,18.8407161,25.97234070696289Q18.8874555,25.91538878696289,18.9395519,25.863292286962892Q18.9916484,25.811195886962892,19.04860038,25.764456486962892Q19.10555232,25.71771728696289,19.16681135,25.676785486962892Q19.22807026,25.63585338696289,19.2930463,25.601122986962892Q19.35802227,25.56639258696289,19.42608964,25.53819818696289Q19.49415696,25.51000378696289,19.56466004,25.488616986962892Q19.63516313,25.46723008696289,19.70742303,25.45285678696289Q19.7796829,25.438483286962892,19.85300368,25.43126168696289Q19.926324457,25.424040286962892,20,25.424040286962892Q20.073675543,25.424040286962892,20.14699632,25.431261786962892Q20.2203171,25.438483286962892,20.29257697,25.45285678696289Q20.36483687,25.46723008696289,20.43533999,25.488616986962892Q20.50584304,25.51000378696289,20.57391036,25.53819818696289Q20.64197773,25.56639258696289,20.70695376,25.60112288696289Q20.77192974,25.63585338696289,20.83318865,25.676785486962892Q20.89444768,25.71771728696289,20.95139968,25.764456486962892Q21.0083516,25.811195886962892,21.0604481,25.863292286962892Q21.1125445,25.91538878696289,21.1592839,25.97234076696289Q21.2060231,26.02929270696289,21.2469549,26.09055173696289Q21.287887,26.15181064696289,21.3226174,26.21678668696289Q21.3573478,26.28176265696289,21.3855422,26.34983002696289Q21.4137366,26.417897346962892,21.4351234,26.48840042696289Q21.4565103,26.55890351696289,21.4708836,26.63116341696289Q21.4852571,26.70342328696289,21.4924787,26.77674406696289Q21.4997002,26.85006484396289,21.4997001,26.92374038696289L21.5,26.92374038696289L21.5,36.02637098696289L21.4997001,36.02637098696289Q21.4997002,36.10004618696289,21.4924786,36.17336748696289Q21.4852571,36.24668888696289,21.4708836,36.318947786962894Q21.4565103,36.39120868696289,21.4351234,36.46171088696289Q21.4137366,36.53221418696289,21.3855422,36.60028078696289Q21.3573478,36.66834828696289,21.3226175,36.73332408696289Q21.287887,36.79829978696289,21.2469549,36.85955908696289Q21.2060231,36.92081828696289,21.1592839,36.97776938696289Q21.1125445,37.03472238696289,21.0604481,37.08681838696289Q21.0083516,37.13891638696289,20.95139962,37.185654386962895Q20.89444768,37.23239338696289,20.83318865,37.27332538696289Q20.77192974,37.31425638696289,20.7069537,37.34898738696289Q20.64197773,37.38371838696289,20.57391036,37.411913386962894Q20.50584304,37.44010838696289,20.43533996,37.461495386962895Q20.36483687,37.48288238696289,20.29257697,37.49725538696289Q20.2203171,37.511629386962895,20.14699632,37.51885038696289Q20.073675543,37.52607138696289,20,37.52607138696289Q19.926324457,37.52607138696289,19.85300368,37.51885038696289Q19.7796829,37.511629386962895,19.70742303,37.49725538696289Q19.63516313,37.48288238696289,19.56466001,37.461495386962895Q19.49415696,37.44010838696289,19.42608964,37.411913386962894Q19.35802227,37.38371838696289,19.29304624,37.34898738696289Q19.22807026,37.31425638696289,19.16681135,37.27332538696289Q19.10555232,37.23239338696289,19.04860032,37.185654386962895Q18.9916484,37.13891638696289,18.9395519,37.08681838696289Q18.8874555,37.03472238696289,18.8407161,36.97776938696289Q18.7939769,36.92081828696289,18.7530451,36.85955908696289Q18.712113,36.79829978696289,18.6773826,36.73332408696289Q18.6426522,36.66834828696289,18.6144578,36.60028078696289Q18.5862634,36.53221418696289,18.5648766,36.46171088696289Q18.5434897,36.391207686962886,18.5291164,36.31894688696289Q18.5147429,36.24668788696289,18.5075213,36.17336748696289Q18.5002998,36.10004618696289,18.5002999,36.02637098696289L18.5,36.02637098696289L18.5,26.92374038696289L18.5002999,26.92374038696289Z" fill-rule="evenodd" fill="#0E0F12" fill-opacity="0.9800000190734863"/><path d="M19.540771484375,17.324994594628905L19.540771484375,17.325294494628906L20.540771484375,17.325294494628906L20.540771484375,17.324994594628905Q20.614447084375,17.324994594628905,20.687767884375,17.317773094628905Q20.761088584375,17.310551594628905,20.833348384375,17.296178094628907Q20.905608384375,17.281804794628908,20.976111384375,17.260417894628905Q21.046614384375,17.239031094628906,21.114681684375,17.210836694628906Q21.182748984375,17.182642294628906,21.247725084375,17.147911994628906Q21.312701084375,17.113181494628908,21.373959984375,17.072249394628905Q21.435219084375,17.031317594628906,21.492171084375,16.984578394628905Q21.549123084375,16.937838994628905,21.601219384375,16.885742594628905Q21.653315984375,16.833646094628907,21.700055084375002,16.776694114628906Q21.746794184375,16.719742174628905,21.787726184375,16.658483144628907Q21.828658384375,16.597224234628907,21.863388784375,16.532248194628906Q21.898119184375,16.467272224628907,21.926313384375,16.399204854628906Q21.954507784375,16.331137534628905,21.975894884375002,16.260634454628907Q21.997281784375,16.190131364628908,22.011655084375,16.117871464628905Q22.026028584375,16.045611594628905,22.033250284375,15.972290814628906Q22.040471584375,15.898970037628906,22.040471584375,15.825294494628906Q22.040471584375,15.751618951628906,22.033250284375,15.678298174628907Q22.026028584375,15.604977394628905,22.011655084375,15.532717524628906Q21.997281784375,15.460457624628907,21.975894884375002,15.389954504628907Q21.954507784375,15.319451454628906,21.926313384375,15.251384134628907Q21.898119184375,15.183316764628906,21.863388984375,15.118340734628907Q21.828658584375,15.053364754628905,21.787726384375,14.992105844628906Q21.746794484375002,14.930846814628906,21.700055084375002,14.873894814628907Q21.653315984375,14.816942894628907,21.601219384375,14.764846394628906Q21.549123084375,14.712749994628906,21.492171084375,14.666010594628906Q21.435219084375,14.619271394628907,21.373959984375,14.578339594628906Q21.312701084375,14.537407494628907,21.247724984375,14.502677094628906Q21.182748984375,14.467946694628907,21.114681684375,14.439752294628907Q21.046614384375,14.411557894628906,20.976111384375,14.390171094628906Q20.905608284375,14.368784194628907,20.833348284375,14.354410894628906Q20.761088584375,14.340037394628906,20.687767784375,14.332815794628907Q20.614447084375,14.325594394628906,20.540771484375,14.325594394628906L20.540771484375,14.325294494628906L19.540771484375,14.325294494628906L19.540771484375,14.325594394628906Q19.467095941375,14.325594394628906,19.393775164375,14.332815894628906Q19.320454384375,14.340037394628906,19.248194514375,14.354410894628906Q19.175934614375,14.368784194628907,19.105431494375,14.390171094628906Q19.034928444375,14.411557894628906,18.966861124375,14.439752294628907Q18.898793754375,14.467946694628907,18.833817724375,14.502676994628906Q18.768841744375,14.537407494628907,18.707582834375,14.578339594628906Q18.646323804375,14.619271394628907,18.589371804375,14.666010594628906Q18.532419884375,14.712749994628906,18.480323384375,14.764846394628906Q18.428226984375,14.816942894628907,18.381487584375,14.873894874628906Q18.334748384375,14.930846814628906,18.293816584375,14.992105844628906Q18.252884484375,15.053364754628905,18.218154084375,15.118340794628907Q18.183423684375,15.183316764628906,18.155229284375,15.251384134628907Q18.127034884375,15.319451454628906,18.105648084375,15.389954534628906Q18.084261184375,15.460457624628907,18.069887884375,15.532717524628906Q18.055514384375,15.604977394628905,18.048292784375,15.678298174628907Q18.041071284375,15.751618951628906,18.041071384375,15.825294494628906Q18.041071284375,15.898970037628906,18.048292884375,15.972290814628906Q18.055514384375,16.045611594628905,18.069887884375,16.117871464628905Q18.084261184375,16.190131364628908,18.105648084375,16.260634484628905Q18.127034884375,16.331137534628905,18.155229284375,16.399204854628906Q18.183423684375,16.467272224628907,18.218153984375,16.532248254628907Q18.252884484375,16.597224234628907,18.293816584375,16.658483144628907Q18.334748384375,16.719742174628905,18.381487584375,16.776694174628908Q18.428226984375,16.833646094628907,18.480323384375,16.885742594628905Q18.532419884375,16.937838994628905,18.589371864375,16.984578394628905Q18.646323804375,17.031317594628906,18.707582834375,17.072249394628905Q18.768841744375,17.113181494628908,18.833817784375,17.147911894628905Q18.898793754375,17.182642294628906,18.966861124375,17.210836694628906Q19.034928444375,17.239031094628906,19.105431524375,17.260417894628905Q19.175934614375,17.281804794628908,19.248194514375,17.296178094628907Q19.320454384375,17.310551594628905,19.393775164375,17.317773194628906Q19.467095941375,17.324994594628905,19.540771484375,17.324994594628905Z" fill-rule="evenodd" fill="#0E0F12" fill-opacity="0.9800000190734863"/><path d="M19.540771484375,22.04847481923828L19.540771484375,22.04877471923828L20.540771484375,22.04877471923828L20.540771484375,22.04847481923828Q20.614447084375,22.04847481923828,20.687767884375,22.04125331923828Q20.761088584375,22.03403181923828,20.833348384375,22.01965831923828Q20.905608384375,22.005285019238283,20.976111384375,21.98389811923828Q21.046614384375,21.96251131923828,21.114681684375,21.93431691923828Q21.182748984375,21.90612251923828,21.247725084375,21.87139221923828Q21.312701084375,21.836661719238283,21.373959984375,21.79572961923828Q21.435219084375,21.75479781923828,21.492171084375,21.70805861923828Q21.549123084375,21.66131921923828,21.601219384375,21.60922281923828Q21.653315984375,21.557126319238282,21.700055084375002,21.50017433923828Q21.746794184375,21.44322239923828,21.787726184375,21.38196336923828Q21.828658384375,21.320704459238282,21.863388784375,21.25572841923828Q21.898119184375,21.190752449238282,21.926313384375,21.12268507923828Q21.954507784375,21.05461775923828,21.975894884375002,20.98411467923828Q21.997281784375,20.913611589238283,22.011655084375,20.84135168923828Q22.026028584375,20.76909181923828,22.033250284375,20.69577103923828Q22.040471584375,20.62245026223828,22.040471584375,20.54877471923828Q22.040471584375,20.47509917623828,22.033250284375,20.40177839923828Q22.026028584375,20.328457619238282,22.011655084375,20.256197749238282Q21.997281784375,20.18393784923828,21.975894884375002,20.113434729238282Q21.954507784375,20.042931679238283,21.926313384375,19.974864359238282Q21.898119184375,19.90679698923828,21.863388984375,19.84182095923828Q21.828658584375,19.77684497923828,21.787726384375,19.71558606923828Q21.746794484375002,19.654327039238282,21.700055084375002,19.59737503923828Q21.653315984375,19.54042311923828,21.601219384375,19.488326619238283Q21.549123084375,19.436230219238283,21.492171084375,19.389490819238283Q21.435219084375,19.342751619238282,21.373959984375,19.301819819238283Q21.312701084375,19.26088771923828,21.247724984375,19.226157319238283Q21.182748984375,19.191426919238282,21.114681684375,19.16323251923828Q21.046614384375,19.13503811923828,20.976111384375,19.113651319238283Q20.905608284375,19.09226441923828,20.833348284375,19.07789111923828Q20.761088584375,19.063517619238283,20.687767784375,19.05629601923828Q20.614447084375,19.049074619238283,20.540771484375,19.049074619238283L20.540771484375,19.04877471923828L19.540771484375,19.04877471923828L19.540771484375,19.049074619238283Q19.467095941375,19.049074619238283,19.393775164375,19.056296119238283Q19.320454384375,19.063517619238283,19.248194514375,19.07789111923828Q19.175934614375,19.09226441923828,19.105431494375,19.113651319238283Q19.034928444375,19.13503811923828,18.966861124375,19.16323251923828Q18.898793754375,19.191426919238282,18.833817724375,19.22615721923828Q18.768841744375,19.26088771923828,18.707582834375,19.301819819238283Q18.646323804375,19.342751619238282,18.589371804375,19.389490819238283Q18.532419884375,19.436230219238283,18.480323384375,19.488326619238283Q18.428226984375,19.54042311923828,18.381487584375,19.59737509923828Q18.334748384375,19.654327039238282,18.293816584375,19.71558606923828Q18.252884484375,19.77684497923828,18.218154084375,19.84182101923828Q18.183423684375,19.90679698923828,18.155229284375,19.974864359238282Q18.127034884375,20.042931679238283,18.105648084375,20.11343475923828Q18.084261184375,20.18393784923828,18.069887884375,20.256197749238282Q18.055514384375,20.328457619238282,18.048292784375,20.40177839923828Q18.041071284375,20.47509917623828,18.041071384375,20.54877471923828Q18.041071284375,20.62245026223828,18.048292884375,20.69577103923828Q18.055514384375,20.76909181923828,18.069887884375,20.84135168923828Q18.084261184375,20.913611589238283,18.105648084375,20.98411470923828Q18.127034884375,21.05461775923828,18.155229284375,21.12268507923828Q18.183423684375,21.190752449238282,18.218153984375,21.255728479238282Q18.252884484375,21.320704459238282,18.293816584375,21.38196336923828Q18.334748384375,21.44322239923828,18.381487584375,21.500174399238283Q18.428226984375,21.557126319238282,18.480323384375,21.60922281923828Q18.532419884375,21.66131921923828,18.589371864375,21.70805861923828Q18.646323804375,21.75479781923828,18.707582834375,21.79572961923828Q18.768841744375,21.836661719238283,18.833817784375,21.87139211923828Q18.898793754375,21.90612251923828,18.966861124375,21.93431691923828Q19.034928444375,21.96251131923828,19.105431524375,21.98389811923828Q19.175934614375,22.005285019238283,19.248194514375,22.01965831923828Q19.320454384375,22.03403181923828,19.393775164375,22.04125341923828Q19.467095941375,22.04847481923828,19.540771484375,22.04847481923828Z" fill-rule="evenodd" fill="#0E0F12" fill-opacity="0.9800000190734863"/></svg>