<svg xmlns="http://www.w3.org/2000/svg" xmlns:xlink="http://www.w3.org/1999/xlink" fill="none" version="1.1" width="60" height="60" viewBox="0 0 60 60"><defs><clipPath id="master_svg0_2_463"><rect x="-0.24697718024253845" y="-0.24697718024253845" width="60.49395436048508" height="60.49395436048508" rx="0"/></clipPath><clipPath id="master_svg1_2_464"><rect x="5.7530228197574615" y="5.7530228197574615" width="48.49395436048508" height="48.49395436048508" rx="0"/></clipPath></defs><g clip-path="url(#master_svg0_2_463)"><g clip-path="url(#master_svg1_2_464)"><rect x="11.189453125" y="34.17673873901367" width="27.15826988220215" height="13.57913589477539" rx="4.178195953369141" fill="#0E0F12" fill-opacity="0.9800000190734863"/><path d="M19.65123846749878,45.69839954868164C22.23560766749878,45.69839954868164,23.85973026749878,43.94387194868164,23.85973026749878,40.992001048681644C23.85973026749878,38.04012884868164,22.23560766749878,36.29745864868164,19.65123846749878,36.29745864868164C17.05501446749878,36.29745864868164,15.43089246749878,38.04012884868164,15.43089246749878,40.992001048681644C15.43089246749878,43.94387194868164,17.05501446749878,45.69839954868164,19.65123846749878,45.69839954868164ZM19.65123846749878,44.16911644868164C18.08639116749878,44.16911644868164,17.10243396749878,43.007334248681644,17.10243396749878,40.992001048681644C17.10243396749878,38.97666644868164,18.08639116749878,37.82674084868164,19.65123846749878,37.82674084868164C21.20423176749878,37.82674084868164,22.188188567498777,38.97666644868164,22.188188567498777,40.992001048681644C22.188188567498777,43.007334248681644,21.20423176749878,44.16911644868164,19.65123846749878,44.16911644868164ZM26.870875467498777,45.53242964868164L25.29417366749878,45.53242964868164L25.29417366749878,36.463426608681644L26.78788946749878,36.463426608681644L31.02009346749878,42.59241484868164L31.09122146749878,42.59241484868164L31.09122146749878,36.463426608681644L32.66792446749878,36.463426608681644L32.66792446749878,45.53242964868164L31.24533746749878,45.53242964868164L26.95385946749878,39.39158824868164L26.870875467498777,39.39158824868164L26.870875467498777,45.53242964868164Z" fill="#FFFFFF" fill-opacity="0.9800000190734863"/><path d="M16.38462680749878,37.37176024868164Q15.18391561749878,38.694247448681644,15.183915797498779,40.992001048681644Q15.18391528749878,43.29081104868164,16.38432311749878,44.61783504868164Q17.58519936749878,45.94537634868164,19.65123846749878,45.94537634868164Q21.709339667498778,45.94537634868164,22.907947967498778,44.61764904868164Q24.106707067498782,43.28975534868164,24.106707067498782,40.992001048681644Q24.106707067498782,38.69529964868164,22.90764526749878,37.37194514868164Q21.71029616749878,36.05048147868164,19.65123846749878,36.05048146868164Q17.58424066749878,36.05048146868164,16.38462680749878,37.37176024868164ZM27.11785246749878,40.05740884868164L27.11785246749878,45.77940754868164L25.04719686749878,45.77940754868164L25.04719686749878,36.21644941668164L26.91748446749878,36.21644941668164L30.84424446749878,41.90310144868164L30.84424446749878,36.21644941668164L32.91489946749878,36.21644941668164L32.91489946749878,45.77940754868164L31.11662546749878,45.77940754868164L27.11785246749878,40.05740884868164ZM27.08257146749878,39.14461084868164L26.62389846749878,39.14461084868164L26.62389846749878,45.28545284868164L25.54115046749878,45.28545284868164L25.54115046749878,36.710403768681644L26.65829646749878,36.710403768681644L30.89049846749878,42.83939174868164L31.33819746749878,42.83939174868164L31.33819746749878,36.710403768681644L32.42094746749878,36.710403768681644L32.42094746749878,45.28545284868164L31.37404846749878,45.28545284868164L27.08257146749878,39.14461084868164ZM16.75063976749878,44.286468948681645Q15.67786964749878,43.10054584868164,15.67786964749878,40.992001048681644Q15.677870007498779,38.88503124868164,16.75033676749878,37.70379534868164Q17.802941567498777,36.54443582868164,19.65123846749878,36.54443582868164Q21.49129816749878,36.54443569868164,22.54159976749878,37.703610448681644Q23.61275336749878,38.88579724868164,23.61275336749878,40.992001048681644Q23.61275336749878,43.09977724868164,22.54129696749878,44.28665444868164Q21.489800467498778,45.45142264868164,19.65123846749878,45.45142264868164Q17.80444116749878,45.45142264868164,16.75063976749878,44.286468948681645ZM21.69386436749878,43.491932348681644Q22.43516536749878,42.578409148681644,22.43516536749878,40.992001048681644Q22.43516536749878,39.40652634868164,21.693446167498777,38.497483048681644Q20.944648267498778,37.57976354868164,19.65123846749878,37.57976354868164Q18.34997726749878,37.57976374868164,17.59891536749878,38.49716784868164Q16.85545656749878,39.40528534868164,16.85545656749878,40.992001048681644Q16.85545656749878,42.57965514868164,17.59849616749878,43.49224754868164Q18.350698267498778,44.41609384868164,19.651238967498777,44.41609384868164Q20.94393066749878,44.41609384868164,21.69386436749878,43.491932348681644ZM21.31072566749878,38.80975794868164Q21.941211667498777,39.58247474868164,21.941211667498777,40.992001048681644Q21.941211667498777,42.40320634868164,21.31030706749878,43.18068454868164Q20.70863536749878,43.92213914868164,19.651238967498777,43.92213914868164Q18.58549526749878,43.92213914868164,17.98154096749878,43.18036934868164Q17.34941116749878,42.403995048681644,17.34941116749878,40.992001048681644Q17.34941116749878,39.58169194868164,17.98112126749878,38.81007294868164Q18.58396096749878,38.07371814868164,19.65123846749878,38.07371804868164Q20.71016546749878,38.07371804868164,21.31072566749878,38.80975794868164Z" fill-rule="evenodd" fill="#FFFFFF" fill-opacity="0.9800000190734863"/><g><path d="M36.25919421000671,16.4194069375C36.25919421000671,14.1119356375,34.38840521000671,12.24133645359,32.08099821000671,12.2412109375L17.457313810006713,12.2412109375C15.149802010006713,12.241252776199,13.279118776316714,14.1118729375,13.279118776316714,16.4194069375L13.279118776316714,32.0876469375L35.21462921000671,32.0876469375C38.099070210006715,32.0876469375,40.43737321000671,34.425948937499996,40.43737321000671,37.3103909375L40.43737321000671,42.2046449375C41.36687521000671,43.057277937500004,42.606078210006714,43.5776769375,43.966815210006715,43.5776769375C46.85113421000671,43.5775719375,49.189555210006716,41.2392459375,49.189555210006716,38.354934937500005L49.189555210006716,22.328627937500002C49.189555210006716,21.2205715375,48.749072210006716,20.1571169375,47.965453210006714,19.3734955375L42.54173521000671,13.9498214375C42.133942210006715,13.5419980375,41.472640210006716,13.5421135375,41.064747210006715,13.9498214375L40.13749621000672,14.8770675375C39.811392210006716,15.2032482375,39.73722921000672,15.705248837500001,39.95595821000671,16.1113691375L42.74678321000671,21.294315337500002L41.69303921000672,22.349100937499998C40.915476210006716,23.1266639375,40.87317321000671,24.374482937499998,41.59725421000671,25.202182937499998L45.011363210006714,29.1029449375L45.011363210006714,38.354934937500005C45.011363210006714,38.9317339375,44.543612210006714,39.3993779375,43.966815210006715,39.3994829375C43.390013210006714,39.3994829375,42.92226321000672,38.9318369375,42.92226321000672,38.354934937500005L42.92226321000672,36.7881109375L42.922276210006714,36.7139799375C42.92238921000671,36.3107009375,42.922484210006715,35.964791937499996,42.89166121000672,35.6517449375C42.59855921000671,32.6762429375,40.24456321000672,30.3223519375,37.26906321000671,30.0291499375C36.96969521000671,29.9996909375,36.64003621000671,29.9985409375,36.25919421000671,29.9985409375L36.25919421000671,16.4194069375ZM18.027533810006716,16.5336799375C18.250857110006713,16.4199285375,18.543540710006713,16.4194069375,19.128175510006713,16.4194069375L30.410138210006714,16.4194069375C30.994771210006714,16.4194069375,31.287455210006716,16.419823637500002,31.510781210006712,16.5336799375C31.707049210006716,16.6337480375,31.866656210006713,16.7933545375,31.966725210006715,16.9896264375C32.080580210006715,17.2130551375,32.08099821000671,17.5056333375,32.08099821000671,18.0902671375L32.08099821000671,18.9267416375C32.08099821000671,19.5113754375,32.080580210006715,19.8039536375,31.966725210006715,20.0273823375C31.866656210006713,20.2236533375,31.707049210006716,20.383259737499998,31.510781210006712,20.4833297375C31.287455210006716,20.5971851375,30.994771210006714,20.5976028375,30.410138210006714,20.5976028375L19.128175510006713,20.5976028375C18.543540710006713,20.5976028375,18.250857110006713,20.597080237500002,18.027533810006716,20.4833297375C17.831262310006714,20.383259737499998,17.671655910006713,20.2236533375,17.571587810006715,20.0273823375C17.457731510006713,19.8039536375,17.457313810006713,19.5114803375,17.457313810006713,18.9267416375L17.457313810006713,18.0902671375C17.457313810006713,17.5055284375,17.457731510006713,17.2130551375,17.571587810006715,16.9896264375C17.671655910006713,16.7933545375,17.831262310006714,16.6337480375,18.027533810006716,16.5336799375Z" fill-rule="evenodd" fill="#000000" fill-opacity="1" style="mix-blend-mode:passthrough"/></g></g></g></svg>