<svg xmlns="http://www.w3.org/2000/svg" xmlns:xlink="http://www.w3.org/1999/xlink" fill="none" version="1.1" width="56" height="56" viewBox="0 0 56 56"><defs><clipPath id="master_svg0_2_415"><rect x="-1.75" y="-1.75" width="59.5" height="59.5" rx="0"/></clipPath><clipPath id="master_svg1_2_416"><rect x="1.049957275390625" y="0.63720703125" width="53.90000915527344" height="53.90000915527344" rx="0"/></clipPath></defs><g clip-path="url(#master_svg0_2_415)"><g clip-path="url(#master_svg1_2_416)"><path d="M13.71945385078125,13.23779296875Q11.66306065078125,13.23779296875,10.98947965078125,13.29281396875L10.98942015078125,13.29281886875Q10.009119990781251,13.37292766875,9.45150316078125,13.65705356875Q8.33704132078125,14.22492229875,7.76916965078125,15.33939236875Q7.48504825078125,15.89700072875,7.40493525078125,16.87734296875Q7.34991455078125,17.550940968749998,7.34991455078125,19.607312668749998L7.34991455078125,35.56649196875Q7.34991455078125,37.62221496875,7.4049388507812495,38.29650496875Q7.48492385078125,39.27543796875,7.76913545078125,39.83438296875Q8.33670926078125,40.94840396875,9.45125836078125,41.51671396875Q10.00880158078125,41.80091896875,10.98949055078125,41.881064968749996Q11.68426465078125,41.937812968749995,13.71945385078125,41.937812968749995L33.87979655078125,41.937812968749995Q35.91508855078125,41.937812968749995,36.609901550781245,41.881053968749995Q37.58793655078125,41.80108996875,38.14864155078125,41.516393968749995Q39.26274655078125,40.94791996875,39.83180255078125,39.831206968749996Q40.11219055078125,39.27808796875,40.19257755078125,38.29645396875Q40.24931955078125,37.601745968749995,40.24931955078125,35.56649196875L40.24931955078125,19.607312668749998Q40.24931955078125,17.57218976875,40.19256255078125,16.87717986875Q40.11225355078125,15.89511358875,39.829891550781255,15.33887660875Q39.261920550781255,14.22510647875,38.14729155078125,13.65681056875Q37.58974655078125,13.37293126875,36.60978655078125,13.29281546875Q35.93627155078125,13.23779296875,33.87979655078125,13.23779296875L13.71945385078125,13.23779296875ZM11.04051885078125,16.77555146875L11.27448535078125,16.78119076875Q11.80587845078125,16.73779296875,13.71945385078125,16.73779296875L33.87979655078125,16.73779296875Q35.793542550781254,16.73779296875,36.32480655078125,16.781194168749998Q36.51148255078125,16.79645576875,36.620162550781245,16.81497956875Q36.67707455078125,16.86059656875,36.71190655078125,16.92890036875L36.704208550781246,17.16244486875Q36.74931955078125,17.71486396875,36.74931955078125,19.607312668749998L36.74931955078125,35.56649196875Q36.74931955078125,37.45904196875,36.70419355078125,38.01153396875Q36.688808550781246,38.19939996875,36.67024955078125,38.30970396875Q36.62551355078125,38.364274968749996,36.557878550781254,38.39878696875L36.32469155078125,38.39269296875Q35.77236355078125,38.437812968749995,33.87979655078125,38.437812968749995L13.71945385078125,38.437812968749995Q11.82697225078125,38.437812968749995,11.27441315078125,38.39268096875Q11.08786215078125,38.37743596875,10.97925865078125,38.35895896875Q10.92226695078125,38.31334496875,10.88771365078125,38.245522968749995L10.89331405078125,38.011481968750005Q10.84991455078125,37.47964896875,10.84991455078125,35.56649196875L10.84991455078125,19.607312668749998Q10.84991455078125,17.69364766875,10.89331755078125,17.16228036875Q10.90856715078125,16.97567006875,10.927056150781251,16.86707126875Q10.97262045078125,16.81014866875,11.04051885078125,16.77555146875Z" fill-rule="evenodd" fill="#0E0F12" fill-opacity="0.9800000190734863"/><path d="M14.60464509296875,25.16164016875C13.94193959296875,25.32723996875,13.29998779296875,24.82612136875,13.29998779296875,24.14301966875L13.29998779296875,21.28785966875C13.29998779296875,20.70789983875,13.77009362296875,20.23779296875,14.34998129296875,20.23779296875L24.850029792968748,20.23779296875C25.42980879296875,20.23779296875,25.89997079296875,20.70789983875,25.89997079296875,21.28785966875L25.89997079296875,21.51789976875C25.89997079296875,21.99976016875,25.572008792968752,22.41969896875,25.104729792968747,22.53669996875L14.60464509296875,25.16164016875Z" fill="#0E0F12" fill-opacity="0.9800000190734863"/><path d="M45.1500616,32.5217796875L39.36825591,29.2178258875L37.63174409,32.2566636875L44.7395825,36.318363687499996Q45.3853555,36.6873686875,46.128941499999996,36.6873686875L46.8790016,36.6873686875Q47.6156044,36.6873686875,48.1349535,36.1649846875Q48.650062,35.6468666875,48.650062,34.9163086875L48.650062,20.2583108955Q48.650062,19.5247071375,48.1313276,19.0059960875Q47.6126127,18.4873046875,46.8790026,18.4873046875L46.128941499999996,18.4873046875Q45.3857384,18.4873046875,44.7401328,18.8559190875L37.63176161,22.9178161875L39.36823839,25.9566726875L45.1500616,22.6527976875L45.1500616,32.5217796875Z" fill-rule="evenodd" fill="#0E0F12" fill-opacity="0.9800000190734863"/></g></g></svg>