<svg xmlns="http://www.w3.org/2000/svg" xmlns:xlink="http://www.w3.org/1999/xlink" fill="none" version="1.1" width="56" height="56" viewBox="0 0 56 56"><defs><clipPath id="master_svg0_2_395"><rect x="0" y="0" width="56" height="56" rx="0"/></clipPath></defs><g clip-path="url(#master_svg0_2_395)"><g><path d="M44.04137115484619,23.012466437500002Q40.95526615484619,19.9263587375,36.95518615484619,18.2344665375Q32.815198154846186,16.4833989375,28.27881715484619,16.4833984375Q23.742432154846192,16.4833984375,19.602440154846192,18.2344675375Q15.60235215484619,19.9263620375,12.51624775484619,23.0124684375L11.98591735484619,23.542803437499998C11.595393454846192,23.9333314375,10.962225954846192,23.9333324375,10.57170045484619,23.542806437499998L9.511034904846191,22.4821415375C9.120509504846192,22.0916166375,9.120510637846191,21.4584493375,9.511037294846192,21.0679254375L10.041371944846192,20.5375943375Q13.610189454846191,16.9687764375,18.23900795484619,15.010952037500001Q23.03268115484619,12.9833984375,28.27881715484619,12.9833984375Q33.52494915484619,12.9833984375,38.31862015484619,15.0109512375Q42.94743015484619,16.9687748375,46.51624815484619,20.5375924375L47.04658215484619,21.0679235375C47.43710815484619,21.4584474375,47.43711215484619,22.091614737500002,47.04658615484619,22.4821395375L45.98592115484619,23.5428044375C45.595395154846194,23.9333304375,44.96222415484619,23.933328437500002,44.57170215484619,23.5428014375L44.04137115484619,23.012466437500002ZM39.48769815484619,28.4256294375Q37.29287815484619,26.2308104375,34.44844915484619,25.0277174375Q31.504927154846193,23.782714437499997,28.27870315484619,23.782714437499997Q25.052482154846192,23.782714437499997,22.108966154846193,25.0277174375Q19.26453615484619,26.2308104375,17.069714554846193,28.4256324375L16.539383854846193,28.9559674375C16.14885995484619,29.3464964375,15.515692754846192,29.3464964375,15.125167354846191,28.9559704375L14.064502254846191,27.8953054375C13.673976854846192,27.5047804375,13.673978354846192,26.871613437500002,14.064505554846193,26.4810894375L14.594840054846191,25.9507594375Q17.27237415484619,23.273225437500002,20.745533154846193,21.804202037499998Q24.342733154846194,20.282714837500002,28.27870315484619,20.282714837500002Q32.21467715484619,20.282714837500002,35.811879154846196,21.804202037499998Q39.28504315484619,23.273224437499998,41.96257115484619,25.9507564375L42.49290515484619,26.4810854375C42.88343515484619,26.8716084375,42.883439154846194,27.5047774375,42.49291315484619,27.8953024375L41.43224415484619,28.9559674375C41.04172015484619,29.3464924375,40.40855315484619,29.3464924375,40.01802915484619,28.955965437499998L39.48769815484619,28.4256294375ZM31.94122615484619,31.8184354375Q33.62999815484619,32.5327264375,34.93353415484619,33.8362614375L35.46386215484619,34.3665964375C35.854386154846196,34.757124437499996,36.487553154846196,34.7571254375,36.87807915484619,34.3666004375L37.93874415484619,33.3059364375C38.32927015484619,32.915412437499995,38.32926815484619,32.2822434375,37.93874115484619,31.8917194375L37.40840615484619,31.3613894375Q35.62216315484619,29.5751414375,33.304658154846194,28.5949204375Q30.90392815484619,27.5794984375,28.27811115484619,27.5794984375Q25.65229915484619,27.5794984375,23.25157115484619,28.5949214375Q20.93406715484619,29.5751414375,19.14781855484619,31.3613914375L18.61748405484619,31.8917194375C18.22695635484619,32.282245437499995,18.22695545484619,32.915412437499995,18.617480254846193,33.305938437500004L19.67814515484619,34.3666024375C20.068671154846193,34.7571274375,20.701838154846193,34.7571254375,21.092362154846192,34.3666004375L21.62269315484619,33.8362634375Q22.92622915484619,32.5327264375,24.61500215484619,31.8184354375Q26.36205015484619,31.0794984375,28.27811115484619,31.0794984375Q30.19418015484619,31.0794984375,31.94122615484619,31.8184354375Z" fill-rule="evenodd" fill="#0E0F12" fill-opacity="0.9800000190734863"/></g><ellipse cx="28.32304286956787" cy="38.09037399291992" rx="2.914285659790039" ry="2.914285659790039" fill="#0E0F12" fill-opacity="0.9800000190734863"/></g></svg>